<svg width="688" height="685" viewBox="0 0 688 685" fill="none" xmlns="http://www.w3.org/2000/svg">
  <path d="M258.735 86.0549C254.471 105.668 246.721 149.529 249.773 168.353C270.011 156.082 292.677 147.364 317.041 143.038C316.534 137.967 297.183 118.384 287.254 108.875L271.41 94.9295L258.735 86.0549Z" fill="#BB0309"/>
  <path d="M398.162 73.3294L390.557 81.6176C387.599 85.6323 381.05 93.7885 378.515 94.2956C369.22 107.185 351.01 134.358 352.531 139.937L352.76 139.937C376.948 139.962 400.062 143.963 421.449 151.347L421.611 150.079C424.146 135.373 407.035 92.7849 398.162 73.3294Z" fill="#BB0309"/>
  <path d="M529.35 132.203C513.294 137.063 478.269 149.445 471.678 154.516C467.051 157.251 457.065 163.336 453.974 165.892C454.062 165.942 454.15 165.991 454.239 166.04C475.247 177.812 493.804 193.198 509.069 211.441C518.196 203.327 526.392 155.235 529.35 132.203Z" fill="#BB0309"/>
  <path d="M454.566 527.886V516.616C434.279 528.385 411.649 536.63 387.388 540.535L389.289 545.001C401.964 565.286 443.792 597.615 446.328 600.151C448.356 602.179 452.665 565.547 454.566 546.977L454.566 527.886Z" fill="#BB0309"/>
  <path d="M306.901 610.293C315.013 606.743 342.391 564.018 355.066 543.099C329.775 543.099 305.654 538.753 283.452 530.737V545.391C285.48 563.707 300.141 596.82 306.901 610.293Z" fill="#BB0309"/>
  <path d="M118.675 441.675C130.802 443.696 164.078 444.207 179.36 444.21C167.338 423.433 159.01 400.147 155.218 375.115C137.472 385.765 111.488 418.854 100.714 434.068L104.732 439.139L118.675 441.675Z" fill="#BB0309"/>
  <path d="M127.547 330.742C133.125 333.784 146.771 340.884 152.898 344.054C152.898 319.087 157.161 295.168 165.025 273.056H163.038C132.111 274.578 97.7609 288.904 84.452 295.877C86.987 300.948 108.746 317.007 119.309 324.403L127.547 330.742Z" fill="#BB0309"/>
  <path d="M143.391 167.195C146.94 185.958 167.263 226.148 176.981 243.897L177.341 245.165C189.114 223.11 204.76 203.561 223.438 187.479L222.611 186.846C221.09 185.831 208.88 181.352 202.965 179.239C193.839 175.182 159.447 169.519 143.391 167.195Z" fill="#BB0309"/>
  <path d="M556.382 497.221C556.382 492.15 536.947 459.187 527.229 443.339C515.336 464.062 499.952 482.412 481.818 497.542C496.521 505.149 541.602 513.812 562.305 517.193L560.404 512.672C558.883 507.601 557.65 501.447 556.382 497.221Z" fill="#BB0309"/>
  <path fill-rule="evenodd" clip-rule="evenodd" d="M551.874 304.752L564.206 298.413C573.839 295.37 600.119 265.027 610.471 250.236C596.773 246.231 561.342 238.61 528.959 240.082C539.574 258.749 547.224 279.41 551.305 301.519C551.503 302.593 551.693 303.671 551.874 304.752Z" fill="#BB0309"/>
  <path fill-rule="evenodd" clip-rule="evenodd" d="M623.146 390.963L597.162 399.837L575.424 405.684C565.684 408.586 545.657 413.846 542.027 412.131C550.232 390.351 554.685 367.053 554.685 341.518C578.008 348.111 610.048 377.228 623.146 390.963Z" fill="#BB0309"/>
  <path fill-rule="evenodd" clip-rule="evenodd" d="M179.515 532.323C179.515 534.569 179.362 538.421 179.206 542.334L179.206 542.335C179.045 546.374 178.882 550.476 178.882 552.944C204.232 544.83 238.283 525.139 252.437 516.476C231.455 504.573 212.949 489.051 197.761 470.673C197.632 470.515 197.502 470.358 197.373 470.201C192.81 477.807 186.599 499.994 184.064 510.136C182.542 515.208 180.149 527.252 179.515 532.323Z" fill="#BB0309"/>
  <path d="M401.964 27.1018C397.739 43.1607 389.543 76.5463 390.557 81.6176L398.162 73.3294C407.035 92.7849 424.146 135.373 421.611 150.079L421.449 151.347C432.806 155.268 443.675 160.144 453.959 165.884C469.231 141.532 497.264 89.8928 511.604 62.9396C512.506 61.2456 513.353 59.6492 514.139 58.1631C482.198 17.5933 427.737 15.4803 404.499 19.495L401.964 27.1018Z" fill="#BB0309"/>
  <path d="M532.518 67.6717C531.194 69.3429 529.705 71.2402 528.082 73.3294C512.877 92.9006 485.879 129.315 471.678 154.516C478.269 149.445 513.294 137.063 529.35 132.203C526.392 155.235 518.196 203.327 509.069 211.441C512.184 215.163 515.162 219.004 517.995 222.958C530.495 218.085 581.945 175.587 610.471 151.251C612.255 149.728 613.95 148.277 615.541 146.91C599.823 100.254 553.644 74.6446 532.518 67.6717Z" fill="#BB0309"/>
  <path d="M672.579 409.98C697.422 360.282 684.62 311.091 675.114 292.708L674.912 292.676C673.238 292.416 671.987 292.222 670.044 292.088C638.653 289.922 579.843 303.535 552.834 311.081C554.065 320.17 554.685 332.018 554.685 341.518C578.008 348.111 610.048 377.228 623.146 390.963L597.162 399.837C619.227 404.341 649.925 407.845 666.875 409.461C669.009 409.664 670.925 409.838 672.579 409.98Z" fill="#BB0309"/>
  <path d="M618.709 534.225C664.34 503.29 669.832 452.029 666.875 430.265C665.187 429.455 663.496 428.671 661.805 427.911C626.41 412.005 589.335 406.289 575.424 405.684C565.684 408.586 545.657 413.846 542.027 412.131C537.998 422.824 533.065 433.151 527.311 443.197L527.238 443.324L527.229 443.339C536.947 459.187 556.382 492.15 556.382 497.221C562.387 507.232 586.093 518.628 605.086 527.758C606.933 528.646 608.734 529.512 610.471 530.353C613.495 531.818 616.281 533.123 618.709 534.225Z" fill="#BB0309"/>
  <path fill-rule="evenodd" clip-rule="evenodd" d="M256.06 637.275L256.061 637.271C256.064 637.259 256.068 637.246 256.071 637.233C256.068 637.247 256.064 637.261 256.06 637.275Z" fill="#E9BAA0"/>
  <path d="M250.496 657.836C290.043 686.235 343.447 678.544 365.206 671.148C366.388 668.511 367.14 663.877 367.552 657.836C369.441 630.194 364.759 573.006 361.292 543.006C359.398 543.058 356.975 543.099 355.066 543.099C342.391 564.018 315.013 606.743 306.901 610.293C300.141 596.82 285.48 563.707 283.452 545.391C275.858 565.457 266.455 599.114 259.084 626.151C258.163 629.53 257.273 632.805 256.423 635.937C256.305 636.372 256.188 636.804 256.071 637.233L256.061 637.271L256.06 637.275L256.056 637.289L256.054 637.296C255.115 640.756 254.227 644.028 253.4 647.06C252.302 651.084 251.324 654.716 250.496 657.836Z" fill="#BB0309"/>
  <path d="M131.984 590.642C170.009 637.298 214.161 649.384 231.484 649.595C233.292 647.032 236 640.098 238.255 635.572C251.17 609.653 270.023 556.24 279.016 529.076C269.789 525.5 260.911 521.283 252.437 516.476C238.283 525.139 204.232 544.83 178.882 552.944C178.882 550.476 179.045 546.374 179.206 542.335L179.206 542.334C179.362 538.421 179.515 534.569 179.515 532.323C170.563 538.429 152.573 561.823 140.031 579.232C136.948 583.513 134.193 587.431 131.984 590.642Z" fill="#BB0309"/>
  <path d="M49.5952 477.807C56.1863 526.491 96.7045 563.173 116.14 575.429C119.356 573.674 123.248 570.86 127.547 567.334C145.613 552.515 171.607 524.474 184.064 510.136C186.599 499.994 192.81 477.807 197.373 470.201C190.697 462.07 184.668 453.385 179.36 444.21C164.078 444.207 130.802 443.696 118.675 441.675C102.538 444.903 78.3049 459.316 61.003 470.286C56.5609 473.103 52.6593 475.692 49.5952 477.807Z" fill="#BB0309"/>
  <path d="M21.0761 344.688C1.30286 399.964 27.6249 444.633 43.2576 460.058C46.6757 459.587 51.0505 458.535 55.9329 457.121C72.0528 452.454 93.7064 443.842 104.732 439.139L100.714 434.068C111.488 418.854 137.472 385.765 155.218 375.115C153.689 365.028 152.898 354.658 152.898 344.054C146.771 340.884 133.125 333.784 127.547 330.742C107.167 329.007 61.8128 336.747 33.7514 342.145C29.0034 343.059 24.7141 343.923 21.0761 344.688Z" fill="#BB0309"/>
  <path d="M48.9616 210.3C12.4571 262.534 17.2737 308.133 24.245 324.403C25.9899 324.954 29.3136 325.347 33.7514 325.614C53.8141 326.819 96.6472 325.441 119.309 324.403C108.746 317.007 86.987 300.948 84.452 295.877C97.7609 288.904 132.111 274.578 163.038 273.056H165.025C167.248 266.803 169.76 260.695 172.544 254.748L170.009 253.405C162.735 249.84 153.645 245.31 143.799 240.302C112.786 226.474 80.6827 217.301 60.3692 212.671C55.9702 211.668 52.124 210.878 48.9616 210.3Z" fill="#BB0309"/>
  <path d="M128.815 100.001C81.6635 119.271 62.693 169.308 59.1017 191.917C60.9283 193.668 63.9869 195.926 67.9743 198.553C84.4926 209.436 116.951 226.645 143.799 240.302C152.729 244.283 161.568 248.65 170.009 253.405L172.544 254.748C174.063 251.504 175.663 248.309 177.341 245.165L176.981 243.897C167.263 226.148 146.94 185.958 143.391 167.195C159.447 169.519 193.839 175.182 202.965 179.239C195.207 167.371 158.457 129.621 135.786 106.941C133.269 104.423 130.926 102.091 128.815 100.001Z" fill="#BB0309"/>
  <path d="M246.06 30.2714C198.402 29.7642 158.179 65.5587 144.025 83.5193C144.71 85.9666 147.185 90.1698 150.916 95.5634C166.513 118.111 204.056 161.461 224.512 184.31L225.335 185.866C233.004 179.43 241.169 173.57 249.773 168.353C246.721 149.529 254.471 105.668 258.735 86.0549L271.41 94.9295C269.25 83.6902 257.725 56.2988 249.791 38.5121C248.417 35.4328 247.151 32.6413 246.06 30.2714Z" fill="#BB0309"/>
  <path d="M384.124 24.5662C383.709 50.3108 382.183 91.0855 378.515 94.2956C381.05 93.7885 387.599 85.6323 390.557 81.6176C389.543 76.5463 397.739 43.1607 401.964 27.1018L384.124 24.5662Z" fill="#030303"/>
  <path d="M528.082 73.3294C526.561 73.8365 516.252 67.0526 511.604 62.9396C497.264 89.8928 469.231 141.532 453.959 165.884L453.974 165.892C457.065 163.336 467.051 157.251 471.678 154.516C485.879 129.315 512.877 92.9006 528.082 73.3294Z" fill="#030303"/>
  <path d="M249.791 38.5121C257.725 56.2988 269.25 83.6902 271.41 94.9295L287.254 108.875C281.859 98.981 273.073 58.7727 268.06 33.4409C264.872 39.0192 254.552 39.146 249.791 38.5121Z" fill="#030303"/>
  <path d="M224.512 184.31C204.056 161.461 166.513 118.111 150.916 95.5634C149.042 100.19 143.391 108.944 135.786 106.941C158.457 129.621 195.207 167.371 202.965 179.239C208.88 181.352 221.09 185.831 222.611 186.846L223.438 187.479C224.067 186.938 224.699 186.4 225.335 185.866L224.512 184.31Z" fill="#030303"/>
  <path d="M67.9743 198.553C67.3405 203.204 64.9323 212.538 60.3692 212.671C80.6827 217.301 112.786 226.474 143.799 240.302C116.951 226.645 84.4926 209.436 67.9743 198.553Z" fill="#030303"/>
  <path d="M119.309 324.403C96.6472 325.441 53.8141 326.819 33.7514 325.614C35.4414 329.643 37.8074 338.59 33.7514 342.145C61.8128 336.747 107.167 329.007 127.547 330.742L119.309 324.403Z" fill="#030303"/>
  <path d="M104.732 439.139C93.7064 443.842 72.0528 452.454 55.9329 457.121C59.3129 460.421 65.059 467.673 61.003 470.286C78.3049 459.316 102.538 444.903 118.675 441.675L104.732 439.139Z" fill="#030303"/>
  <path d="M184.064 510.136C171.607 524.474 145.613 552.515 127.547 567.334C131.434 568.976 139.371 573.654 140.031 579.232C152.573 561.823 170.563 538.429 179.515 532.323C180.149 527.252 182.542 515.208 184.064 510.136Z" fill="#030303"/>
  <path d="M279.016 529.076C270.023 556.24 251.17 609.653 238.255 635.572C243.745 637.474 253.952 645.031 253.4 647.06C254.227 644.028 255.115 640.756 256.054 637.296L256.056 637.289L256.06 637.275L256.061 637.271L256.071 637.233L256.423 635.937C257.273 632.805 258.163 629.53 259.084 626.151C266.455 599.114 275.858 565.457 283.452 545.391V530.737C281.964 530.2 280.486 529.646 279.016 529.076Z" fill="#030303"/>
  <path d="M361.292 543.006C364.759 573.006 369.441 630.194 367.552 657.836C370.215 656.146 376.851 653.145 384.633 657.202C378.525 626.224 370.131 574.729 371.439 542.45C368.049 542.722 364.736 542.903 361.292 543.006C361.119 543.011 360.945 543.016 360.772 543.021L361.292 543.006Z" fill="#030303"/>
  <path d="M512.642 619.802C492.755 593.942 460.518 549.866 454.566 527.886L454.566 546.977C465.712 566.556 487.078 605.827 495.697 627.409C500.21 619.802 508.874 619.168 512.642 619.802Z" fill="#030303"/>
  <path d="M666.875 409.461C649.925 407.845 619.227 404.341 597.162 399.837L575.424 405.684C589.335 406.289 626.41 412.005 661.805 427.911C657.326 421.463 663.319 412.925 666.875 409.461Z" fill="#030303"/>
  <path d="M666.875 274.251C644.903 283.38 601.213 297.95 564.206 298.413L551.874 304.752C552.226 306.849 552.546 308.959 552.834 311.081C579.843 303.535 638.653 289.922 670.044 292.088C664.489 289.563 665.406 279.145 666.875 274.251Z" fill="#030303"/>
  <path fill-rule="evenodd" clip-rule="evenodd" d="M606.034 553.242C595.26 574.583 562.685 619.295 518.576 627.409C516.772 625.133 514.778 622.58 512.642 619.802C492.755 593.942 460.518 549.866 454.566 527.886V516.616C464.204 511.024 473.314 504.637 481.818 497.542C496.521 505.149 541.602 513.812 562.305 517.193L560.404 512.672C562.703 514.54 565.382 516.661 568.26 518.94C578.817 527.297 592.055 537.778 599.063 545.709C599.947 546.709 601.093 547.828 602.202 548.911C604.005 550.67 605.71 552.335 606.034 553.242Z" fill="#BB0309"/>
  <path d="M599.063 545.709C596.315 542.219 606.368 534.44 610.471 530.353C608.734 529.512 606.933 528.646 605.086 527.758C586.093 518.628 562.387 507.232 556.382 497.221C557.65 501.447 558.883 507.601 560.404 512.672C562.703 514.54 565.382 516.661 568.26 518.94C578.817 527.297 592.055 537.778 599.063 545.709Z" fill="#030303"/>
  <path fill-rule="evenodd" clip-rule="evenodd" d="M626.948 165.927C643.426 180.929 675.621 223.105 672.579 271.789C670.895 272.548 668.985 273.374 666.875 274.251C644.903 283.38 601.213 297.95 564.206 298.413C573.839 295.37 600.119 265.027 610.471 250.236C596.773 246.231 561.342 238.61 528.959 240.082C527.716 237.896 526.432 235.738 525.108 233.607C551.5 213.623 603.473 174.835 623.146 166.822C625.369 165.917 625.589 165.919 626.631 165.925C626.729 165.926 626.834 165.927 626.948 165.927Z" fill="#BB0309"/>
  <path d="M623.146 166.822C615.034 161.453 610.682 154.416 610.471 151.251C581.945 175.587 530.495 218.085 517.995 222.958C520.478 226.422 522.851 229.974 525.108 233.607C551.5 213.623 603.473 174.835 623.146 166.822Z" fill="#030303"/>
  <path d="M388.022 671.148C439.229 681.29 483.297 652.554 498.929 636.917C498.325 634.424 497.206 631.187 495.697 627.409C487.078 605.827 465.712 566.556 454.566 546.977C452.665 565.547 448.356 602.179 446.328 600.151C443.792 597.615 401.964 565.286 389.289 545.001L387.388 540.535C383.923 541.132 375.312 542.06 371.439 542.45C370.131 574.729 378.525 626.224 384.633 657.202C385.626 662.238 387.195 667.366 388.022 671.148Z" fill="#BB0309"/>
  <path fill-rule="evenodd" clip-rule="evenodd" d="M384.219 16.9594C334.533 -7.88965 284.93 11.6768 266.34 24.5662C266.842 27.2198 267.42 30.2093 268.06 33.4409C273.073 58.7727 281.859 98.981 287.254 108.875C297.183 118.384 316.534 137.967 317.041 143.038L317.042 143.038C323.626 141.815 339.94 139.484 352.531 139.937C351.01 134.358 369.22 107.185 378.515 94.2956C382.183 91.0855 383.709 50.3108 384.124 24.5662C384.167 21.8415 384.199 19.2851 384.219 16.9594Z" fill="#BB0309"/>
  <path fill-rule="evenodd" clip-rule="evenodd" d="M352.76 139.937L352.531 139.937C339.94 139.484 323.626 141.815 317.042 143.038L317.041 143.038C292.677 147.364 270.011 156.082 249.773 168.353C241.169 173.57 233.004 179.43 225.335 185.866C224.699 186.4 224.067 186.938 223.438 187.479C204.76 203.561 189.114 223.11 177.341 245.165C175.663 248.309 174.063 251.504 172.544 254.748C169.76 260.695 167.248 266.803 165.025 273.056C157.161 295.168 152.898 319.087 152.898 344.054C152.898 354.658 153.689 365.028 155.218 375.115C159.01 400.147 167.338 423.433 179.36 444.21C184.668 453.385 190.697 462.07 197.373 470.201C197.502 470.358 197.632 470.515 197.761 470.673C212.949 489.051 231.455 504.573 252.437 516.476C260.911 521.283 269.789 525.5 279.016 529.076C280.486 529.646 281.964 530.2 283.452 530.737C305.654 538.753 329.775 543.099 355.066 543.099C356.975 543.099 359.398 543.058 361.292 543.006C364.736 542.903 368.049 542.722 371.439 542.45C375.312 542.06 383.923 541.132 387.388 540.535C411.649 536.63 434.279 528.385 454.566 516.616C464.204 511.024 473.314 504.637 481.818 497.542C499.952 482.412 515.336 464.062 527.229 443.339L527.238 443.324L527.311 443.197C533.065 433.151 537.998 422.824 542.027 412.131C550.232 390.351 554.685 367.053 554.685 341.518C554.685 332.018 554.065 320.17 552.834 311.081C552.546 308.959 552.226 306.849 551.874 304.752C551.693 303.671 551.503 302.593 551.305 301.519C547.224 279.41 539.574 258.749 528.959 240.082C527.716 237.896 526.432 235.738 525.108 233.607C522.851 229.974 520.478 226.422 517.995 222.958C515.162 219.004 512.184 215.163 509.069 211.441C493.804 193.198 475.247 177.812 454.239 166.04L453.932 165.927L453.959 165.884C443.675 160.144 432.806 155.268 421.449 151.347C400.062 143.963 376.948 139.962 352.76 139.937ZM351.898 499.994C439.401 499.994 510.337 429.042 510.337 341.518C510.337 253.994 439.401 183.042 351.898 183.042C264.394 183.042 193.458 253.994 193.458 341.518C193.458 429.042 264.394 499.994 351.898 499.994Z" fill="#E9BAA0"/>
  <path d="M510.337 341.518C510.337 429.042 439.401 499.994 351.898 499.994C264.394 499.994 193.458 429.042 193.458 341.518C193.458 253.994 264.394 183.042 351.898 183.042C439.401 183.042 510.337 253.994 510.337 341.518Z" fill="#E9BAA0"/>
  <path d="M378.515 94.2956C382.183 91.0855 383.709 50.3108 384.124 24.5662M378.515 94.2956C381.05 93.7885 387.599 85.6323 390.557 81.6176M378.515 94.2956C369.22 107.185 351.01 134.358 352.531 139.937M384.124 24.5662C384.167 21.8415 384.199 19.2851 384.219 16.9594C334.533 -7.88965 284.93 11.6768 266.34 24.5662C266.842 27.2198 267.42 30.2093 268.06 33.4409M384.124 24.5662L401.964 27.1018M401.964 27.1018C397.739 43.1607 389.543 76.5463 390.557 81.6176M401.964 27.1018L404.499 19.495C427.737 15.4803 482.198 17.5933 514.139 58.1631C513.353 59.6492 512.506 61.2456 511.604 62.9396M390.557 81.6176L398.162 73.3294C407.035 92.7849 424.146 135.373 421.611 150.079L421.449 151.347M453.932 165.927L454.239 166.04M453.932 165.927C453.946 165.915 453.96 165.904 453.974 165.892M453.932 165.927C453.941 165.913 453.95 165.898 453.959 165.884M453.932 165.927L453.959 165.884M511.604 62.9396C516.252 67.0526 526.561 73.8365 528.082 73.3294M511.604 62.9396C497.264 89.8928 469.231 141.532 453.959 165.884M528.082 73.3294C529.705 71.2402 531.194 69.3429 532.518 67.6717M528.082 73.3294C512.877 92.9006 485.879 129.315 471.678 154.516M532.518 67.6717C518.787 84.9984 487.395 126.625 471.678 154.516M532.518 67.6717C553.644 74.6446 599.823 100.254 615.541 146.91C613.95 148.277 612.256 149.728 610.471 151.251M471.678 154.516C478.269 149.445 513.294 137.063 529.35 132.203C526.392 155.235 518.196 203.327 509.069 211.441M471.678 154.516C467.051 157.251 457.065 163.336 453.974 165.892M517.995 222.958C515.162 219.004 512.184 215.163 509.069 211.441M517.995 222.958C501.274 199.627 479.533 180.213 454.239 166.04M517.995 222.958C530.495 218.085 581.945 175.587 610.471 151.251M517.995 222.958C517.977 222.965 518.013 222.951 517.995 222.958ZM517.995 222.958C520.478 226.422 522.851 229.974 525.108 233.607M524.913 233.754C524.978 233.705 525.043 233.656 525.108 233.607M564.206 298.413C601.213 297.95 644.903 283.38 666.875 274.251M564.206 298.413C573.839 295.37 600.119 265.027 610.471 250.236C596.773 246.231 561.342 238.61 528.959 240.082M564.206 298.413L551.874 304.752M552.799 311.091C552.81 311.087 552.834 311.081 552.834 311.081M675.114 292.708C684.62 311.091 697.422 360.282 672.579 409.98C670.925 409.838 669.009 409.664 666.875 409.461M675.114 292.708L674.912 292.676M675.114 292.708C675.046 292.697 674.978 292.686 674.912 292.676M597.162 399.837C619.227 404.341 649.925 407.845 666.875 409.461M597.162 399.837L623.146 390.963C610.048 377.228 578.008 348.111 554.685 341.518M597.162 399.837L575.424 405.684M610.471 151.251C610.682 154.416 615.034 161.453 623.146 166.822M623.146 166.822C603.473 174.835 551.5 213.623 525.108 233.607M623.146 166.822C625.369 165.917 625.589 165.919 626.631 165.925C626.729 165.926 626.834 165.927 626.948 165.927C643.426 180.929 675.621 223.105 672.579 271.789C670.895 272.548 668.985 273.374 666.875 274.251M666.875 274.251C665.406 279.145 664.489 289.563 670.044 292.088M670.044 292.088C638.653 289.922 579.843 303.535 552.834 311.081M670.044 292.088C671.987 292.222 673.238 292.416 674.912 292.676M575.424 405.684C589.335 406.289 626.41 412.005 661.805 427.911M575.424 405.684C565.684 408.586 545.657 413.846 542.027 412.131M556.382 497.221C556.382 492.15 536.947 459.187 527.229 443.339M556.382 497.221C557.65 501.447 558.883 507.601 560.404 512.672M556.382 497.221C562.387 507.232 586.093 518.628 605.086 527.758C606.933 528.646 608.734 529.512 610.471 530.353M666.875 409.461C663.319 412.925 657.326 421.463 661.805 427.911M661.805 427.911C663.496 428.671 665.187 429.455 666.875 430.265C669.832 452.029 664.34 503.29 618.709 534.225C616.281 533.123 613.495 531.818 610.471 530.353M560.404 512.672L562.305 517.193C541.602 513.812 496.521 505.149 481.818 497.542M560.404 512.672C562.703 514.54 565.382 516.661 568.26 518.94C578.817 527.297 592.055 537.778 599.063 545.709M454.566 527.886C460.518 549.866 492.755 593.942 512.642 619.802M454.566 527.886L454.566 546.977M454.566 527.886V516.616M610.471 530.353C606.368 534.44 596.315 542.219 599.063 545.709M599.063 545.709C599.947 546.709 601.093 547.828 602.202 548.911C604.005 550.67 605.71 552.335 606.034 553.242C595.26 574.583 562.685 619.295 518.576 627.409C516.772 625.133 514.778 622.58 512.642 619.802M454.566 546.977C465.712 566.556 487.078 605.827 495.697 627.409M454.566 546.977C452.665 565.547 448.356 602.179 446.328 600.151C443.792 597.615 401.964 565.286 389.289 545.001L387.388 540.535M371.439 542.45C370.131 574.729 378.525 626.224 384.633 657.202M371.439 542.45C368.049 542.722 364.736 542.903 361.292 543.006M371.439 542.45C375.312 542.06 383.923 541.132 387.388 540.535M512.642 619.802C508.874 619.168 500.21 619.802 495.697 627.409M495.697 627.409C497.206 631.187 498.325 634.424 498.929 636.917C483.297 652.554 439.229 681.29 388.022 671.148C387.195 667.366 385.626 662.238 384.633 657.202M361.292 543.006C364.759 573.006 369.441 630.194 367.552 657.836M361.292 543.006C359.398 543.058 356.975 543.099 355.066 543.099M361.292 543.006C361.119 543.011 360.945 543.016 360.772 543.021M361.292 543.006L360.772 543.021M283.452 545.391C285.48 563.707 300.141 596.82 306.901 610.293C315.013 606.743 342.391 564.018 355.066 543.099M283.452 545.391V530.737M283.452 545.391C275.858 565.457 266.455 599.114 259.084 626.151C258.163 629.53 257.273 632.805 256.423 635.937M367.552 657.836C367.14 663.877 366.388 668.511 365.206 671.148C343.447 678.544 290.043 686.235 250.496 657.836C251.324 654.716 252.302 651.084 253.4 647.06M367.552 657.836C370.215 656.146 376.851 653.145 384.633 657.202M279.016 529.076C270.023 556.24 251.17 609.653 238.255 635.572M279.016 529.076C269.789 525.5 260.911 521.283 252.437 516.476M279.016 529.076C280.486 529.646 281.964 530.2 283.452 530.737M279.016 529.076C246.946 516.646 219.083 496.474 197.761 470.673M179.515 532.323C170.563 538.429 152.573 561.823 140.031 579.232M179.515 532.323C180.149 527.252 182.542 515.208 184.064 510.136M179.515 532.323C179.515 534.569 179.362 538.421 179.206 542.334L179.206 542.335C179.045 546.374 178.882 550.476 178.882 552.944C204.232 544.83 238.283 525.139 252.437 516.476M238.255 635.572C236 640.098 233.292 647.032 231.484 649.595C214.161 649.384 170.009 637.298 131.984 590.642C134.193 587.431 136.948 583.513 140.031 579.232M238.255 635.572C243.745 637.474 253.952 645.031 253.4 647.06M253.4 647.06C254.227 644.028 255.115 640.756 256.054 637.296M184.064 510.136C171.607 524.474 145.613 552.515 127.547 567.334M184.064 510.136C186.599 499.994 192.81 477.807 197.373 470.201M118.675 441.675C102.538 444.903 78.3049 459.316 61.003 470.286M118.675 441.675L104.732 439.139M118.675 441.675C130.802 443.696 164.078 444.207 179.36 444.21M127.547 567.334C123.248 570.86 119.356 573.674 116.14 575.429C96.7045 563.173 56.1863 526.491 49.5952 477.807C52.6593 475.692 56.5609 473.103 61.003 470.286M127.547 567.334C131.434 568.976 139.371 573.654 140.031 579.232M104.732 439.139C93.7064 443.842 72.0528 452.454 55.9329 457.121M104.732 439.139L100.714 434.068C111.488 418.854 137.472 385.765 155.218 375.115M127.547 330.742C107.167 329.007 61.8128 336.747 33.7514 342.145M127.547 330.742C133.125 333.784 146.771 340.884 152.898 344.054M127.547 330.742L119.309 324.403M55.9329 457.121C51.0505 458.535 46.6757 459.587 43.2576 460.058C27.6249 444.633 1.30286 399.964 21.0761 344.688C24.7141 343.923 29.0034 343.059 33.7514 342.145M55.9329 457.121C59.3129 460.421 65.059 467.673 61.003 470.286M119.309 324.403C96.6472 325.441 53.8141 326.819 33.7514 325.614M119.309 324.403C108.746 317.007 86.987 300.948 84.452 295.877C97.7609 288.904 132.111 274.578 163.038 273.056H165.025M170.009 253.405L172.544 254.748M170.009 253.405C162.735 249.84 153.644 245.31 143.799 240.302M170.009 253.405C161.568 248.65 152.729 244.283 143.799 240.302M33.7514 325.614C29.3136 325.347 25.9899 324.954 24.245 324.403C17.2737 308.133 12.4571 262.534 48.9616 210.3C52.124 210.878 55.9702 211.668 60.3692 212.671M33.7514 325.614C35.4414 329.643 37.8074 338.59 33.7514 342.145M202.965 179.239C195.207 167.371 158.457 129.621 135.786 106.941M202.965 179.239C193.839 175.182 159.447 169.519 143.391 167.195C146.94 185.958 167.263 226.148 176.981 243.897L177.341 245.165M202.965 179.239C208.88 181.352 221.09 185.831 222.611 186.846L223.438 187.479M67.9743 198.553C63.9869 195.926 60.9283 193.668 59.1017 191.917C62.693 169.308 81.6634 119.271 128.815 100.001C130.926 102.091 133.269 104.423 135.786 106.941M67.9743 198.553C67.3405 203.204 64.9323 212.538 60.3692 212.671M67.9743 198.553C84.4926 209.436 116.951 226.645 143.799 240.302M60.3692 212.671C80.6827 217.301 112.786 226.474 143.799 240.302M271.41 94.9295C269.25 83.6902 257.725 56.2988 249.791 38.5121M271.41 94.9295L258.735 86.0549C254.471 105.668 246.721 149.529 249.773 168.353M271.41 94.9295L287.254 108.875M150.916 95.5634C166.513 118.111 204.056 161.461 224.512 184.31L225.335 185.866M150.916 95.5634C147.185 90.1698 144.71 85.9666 144.025 83.5193C158.179 65.5587 198.402 29.7642 246.06 30.2714C247.151 32.6413 248.417 35.4328 249.791 38.5121M150.916 95.5634C149.042 100.19 143.391 108.944 135.786 106.941M287.254 108.875C281.859 98.981 273.073 58.7727 268.06 33.4409M287.254 108.875C297.183 118.384 316.534 137.967 317.041 143.038M249.791 38.5121C254.552 39.146 264.872 39.0192 268.06 33.4409M249.791 168.462C249.785 168.426 249.779 168.39 249.773 168.353M317.041 143.038C292.677 147.364 270.011 156.082 249.773 168.353M317.041 143.038L317.042 143.038M352.531 139.937C352.608 139.937 352.684 139.937 352.76 139.937M352.531 139.937L352.76 139.937M352.531 139.937C339.94 139.484 323.626 141.815 317.042 143.038M509.069 211.441C493.804 193.198 475.247 177.812 454.239 166.04M528.716 240.093C528.797 240.09 528.878 240.086 528.959 240.082M551.874 304.752C552.226 306.849 552.546 308.959 552.834 311.081M551.874 304.752C551.693 303.671 551.503 302.593 551.305 301.519M554.685 341.518C554.685 332.018 554.065 320.17 552.834 311.081M554.685 341.518C554.685 367.053 550.232 390.351 542.027 412.131M541.835 412.023C541.892 412.061 541.957 412.097 542.027 412.131M527.229 443.339C515.336 464.062 499.952 482.412 481.818 497.542M527.229 443.339L527.238 443.324M527.229 443.339C527.232 443.334 527.235 443.329 527.238 443.324M481.818 497.542C473.314 504.637 464.204 511.024 454.566 516.616M454.566 516.476V516.616M355.066 543.099C329.775 543.099 305.654 538.753 283.452 530.737M355.066 543.099C291.116 543.099 234.649 515.31 197.761 470.673M355.066 543.099C356.976 543.099 358.877 543.073 360.772 543.021M252.437 516.476C231.455 504.573 212.949 489.051 197.761 470.673M197.373 470.201C190.697 462.07 184.668 453.385 179.36 444.21M197.373 470.201C197.502 470.358 197.632 470.515 197.761 470.673M179.516 444.21C179.464 444.21 179.412 444.21 179.36 444.21M155.218 375.115C159.01 400.147 167.338 423.433 179.36 444.21M155.218 375.115C153.689 365.028 152.898 354.658 152.898 344.054M152.898 344.054C152.898 319.087 157.161 295.168 165.025 273.056M152.898 344.054C152.898 380.974 162.494 415.061 179.36 444.21M352.76 139.937C376.948 139.962 400.062 143.963 421.449 151.347M421.449 151.347C432.806 155.268 443.675 160.144 453.959 165.884M454.239 166.04C454.15 165.991 454.062 165.942 453.974 165.892M387.388 540.535C411.649 536.63 434.279 528.385 454.566 516.616M165.025 273.056C167.248 266.803 169.76 260.695 172.544 254.748M172.544 254.748C174.063 251.504 175.663 248.309 177.341 245.165M177.341 245.165C189.114 223.11 204.76 203.561 223.438 187.479M223.438 187.479C224.067 186.938 224.699 186.4 225.335 185.866M225.335 185.866C233.004 179.43 241.169 173.57 249.773 168.353M249.773 168.353C270.011 156.082 292.678 147.363 317.042 143.038M453.974 165.892C453.969 165.89 453.964 165.887 453.959 165.884M453.974 165.892L453.959 165.884M528.959 240.082C539.574 258.749 547.224 279.41 551.305 301.519M528.959 240.082C527.716 237.896 526.432 235.737 525.108 233.607M552.834 311.081C552.398 307.865 551.888 304.677 551.305 301.519M454.566 516.616C484.761 499.098 509.767 473.772 527.238 443.324M179.36 444.21C184.771 453.563 190.93 462.406 197.761 470.673M527.311 443.197C533.065 433.151 537.998 422.824 542.027 412.131M527.311 443.197L527.238 443.324M527.311 443.197C527.287 443.239 527.262 443.282 527.238 443.324M256.06 637.275L256.056 637.289M256.06 637.275C256.059 637.28 256.057 637.284 256.056 637.289M256.06 637.275L256.061 637.271M256.06 637.275C256.064 637.261 256.068 637.247 256.071 637.233M256.056 637.289L256.054 637.296M256.056 637.289C256.055 637.291 256.055 637.294 256.054 637.296M256.061 637.271L256.071 637.233M256.061 637.271C256.064 637.259 256.068 637.246 256.071 637.233M256.423 635.937C256.305 636.372 256.188 636.804 256.071 637.233M256.423 635.937L256.071 637.233M510.337 341.518C510.337 429.042 439.401 499.994 351.898 499.994C264.394 499.994 193.458 429.042 193.458 341.518C193.458 253.994 264.394 183.042 351.898 183.042C439.401 183.042 510.337 253.994 510.337 341.518Z" stroke="#BB0309"/>
  <mask id="mask0_301_107" style="mask-type:alpha" maskUnits="userSpaceOnUse" x="13" y="4" width="675" height="675">
    <path d="M258.735 86.0549C254.471 105.668 246.721 149.529 249.773 168.353C270.011 156.082 292.677 147.364 317.041 143.038C316.534 137.967 297.183 118.384 287.254 108.875L271.41 94.9295L258.735 86.0549Z" fill="#112055"/>
    <path d="M398.162 73.3294L390.557 81.6176C387.599 85.6323 381.05 93.7885 378.515 94.2956C369.22 107.185 351.01 134.358 352.531 139.937L352.76 139.937C376.948 139.962 400.062 143.963 421.449 151.347L421.611 150.079C424.146 135.373 407.035 92.7849 398.162 73.3294Z" fill="#112055"/>
    <path d="M529.35 132.203C513.294 137.063 478.269 149.445 471.678 154.516C467.051 157.251 457.065 163.336 453.974 165.892C454.062 165.942 454.15 165.991 454.239 166.04C475.247 177.812 493.804 193.198 509.069 211.441C518.196 203.327 526.392 155.235 529.35 132.203Z" fill="#112055"/>
    <path d="M454.566 527.886V516.616C434.279 528.385 411.649 536.63 387.388 540.535L389.289 545.001C401.964 565.286 443.792 597.615 446.328 600.151C448.356 602.179 452.665 565.547 454.566 546.977L454.566 527.886Z" fill="#112055"/>
    <path d="M306.901 610.293C315.013 606.743 342.391 564.018 355.066 543.099C329.775 543.099 305.654 538.753 283.452 530.737V545.391C285.48 563.707 300.141 596.82 306.901 610.293Z" fill="#112055"/>
    <path d="M118.675 441.675C130.802 443.696 164.078 444.207 179.36 444.21C167.338 423.433 159.01 400.147 155.218 375.115C137.472 385.765 111.488 418.854 100.714 434.068L104.732 439.139L118.675 441.675Z" fill="#112055"/>
    <path d="M127.547 330.742C133.125 333.784 146.771 340.884 152.898 344.054C152.898 319.087 157.161 295.168 165.025 273.056H163.038C132.111 274.578 97.7609 288.904 84.452 295.877C86.987 300.948 108.746 317.007 119.309 324.403L127.547 330.742Z" fill="#112055"/>
    <path d="M143.391 167.195C146.94 185.958 167.263 226.148 176.981 243.897L177.341 245.165C189.114 223.11 204.76 203.561 223.438 187.479L222.611 186.846C221.09 185.831 208.88 181.352 202.965 179.239C193.839 175.182 159.447 169.519 143.391 167.195Z" fill="#112055"/>
    <path d="M556.382 497.221C556.382 492.15 536.947 459.187 527.229 443.339C515.336 464.062 499.952 482.412 481.818 497.542C496.521 505.149 541.602 513.812 562.305 517.193L560.404 512.672C558.883 507.601 557.65 501.447 556.382 497.221Z" fill="#112055"/>
    <path fill-rule="evenodd" clip-rule="evenodd" d="M551.874 304.752L564.206 298.413C573.839 295.37 600.119 265.027 610.471 250.236C596.773 246.231 561.342 238.61 528.959 240.082C539.574 258.749 547.224 279.41 551.305 301.519C551.503 302.593 551.693 303.671 551.874 304.752Z" fill="#112055"/>
    <path fill-rule="evenodd" clip-rule="evenodd" d="M623.146 390.963L597.162 399.837L575.424 405.684C565.684 408.586 545.657 413.846 542.027 412.131C550.232 390.351 554.685 367.053 554.685 341.518C578.008 348.111 610.048 377.228 623.146 390.963Z" fill="#112055"/>
    <path fill-rule="evenodd" clip-rule="evenodd" d="M179.515 532.323C179.515 534.569 179.362 538.421 179.206 542.334L179.206 542.335C179.045 546.374 178.882 550.476 178.882 552.944C204.232 544.83 238.283 525.139 252.437 516.476C231.455 504.573 212.949 489.051 197.761 470.673C197.632 470.515 197.502 470.358 197.373 470.201C192.81 477.807 186.599 499.994 184.064 510.136C182.542 515.208 180.149 527.252 179.515 532.323Z" fill="#112055"/>
    <path d="M401.964 27.1018C397.739 43.1607 389.543 76.5463 390.557 81.6176L398.162 73.3294C407.035 92.7849 424.146 135.373 421.611 150.079L421.449 151.347C432.806 155.268 443.675 160.144 453.959 165.884C469.231 141.532 497.264 89.8928 511.604 62.9396C512.506 61.2456 513.353 59.6492 514.139 58.1631C482.198 17.5933 427.737 15.4803 404.499 19.495L401.964 27.1018Z" fill="#112055"/>
    <path d="M532.518 67.6717C531.194 69.3429 529.705 71.2402 528.082 73.3294C512.877 92.9006 485.879 129.315 471.678 154.516C478.269 149.445 513.294 137.063 529.35 132.203C526.392 155.235 518.196 203.327 509.069 211.441C512.184 215.163 515.162 219.004 517.995 222.958C530.495 218.085 581.945 175.587 610.471 151.251C612.255 149.728 613.95 148.277 615.541 146.91C599.823 100.254 553.644 74.6446 532.518 67.6717Z" fill="#112055"/>
    <path d="M672.579 409.98C697.422 360.282 684.62 311.091 675.114 292.708L674.912 292.676C673.238 292.416 671.987 292.222 670.044 292.088C638.653 289.922 579.843 303.535 552.834 311.081C554.065 320.17 554.685 332.018 554.685 341.518C578.008 348.111 610.048 377.228 623.146 390.963L597.162 399.837C619.227 404.341 649.925 407.845 666.875 409.461C669.009 409.664 670.925 409.838 672.579 409.98Z" fill="#112055"/>
    <path d="M618.709 534.225C664.34 503.29 669.832 452.029 666.875 430.265C665.187 429.455 663.496 428.671 661.805 427.911C626.41 412.005 589.335 406.289 575.424 405.684C565.684 408.586 545.657 413.846 542.027 412.131C537.998 422.824 533.065 433.151 527.311 443.197L527.238 443.324L527.229 443.339C536.947 459.187 556.382 492.15 556.382 497.221C562.387 507.232 586.093 518.628 605.086 527.758C606.933 528.646 608.734 529.512 610.471 530.353C613.495 531.818 616.281 533.123 618.709 534.225Z" fill="#112055"/>
    <path fill-rule="evenodd" clip-rule="evenodd" d="M256.06 637.275L256.061 637.271C256.064 637.259 256.068 637.246 256.071 637.233C256.068 637.247 256.064 637.261 256.06 637.275Z" fill="#E9BAA0"/>
    <path d="M250.496 657.836C290.043 686.235 343.447 678.544 365.206 671.148C366.388 668.511 367.14 663.877 367.552 657.836C369.441 630.194 364.759 573.006 361.292 543.006C359.398 543.058 356.975 543.099 355.066 543.099C342.391 564.018 315.013 606.743 306.901 610.293C300.141 596.82 285.48 563.707 283.452 545.391C275.858 565.457 266.455 599.114 259.084 626.151C258.163 629.53 257.273 632.805 256.423 635.937C256.305 636.372 256.188 636.804 256.071 637.233L256.061 637.271L256.06 637.275L256.056 637.289L256.054 637.296C255.115 640.756 254.227 644.028 253.4 647.06C252.302 651.084 251.324 654.716 250.496 657.836Z" fill="#112055"/>
    <path d="M131.984 590.642C170.009 637.298 214.161 649.384 231.484 649.595C233.292 647.032 236 640.098 238.255 635.572C251.17 609.653 270.023 556.24 279.016 529.076C269.789 525.5 260.911 521.283 252.437 516.476C238.283 525.139 204.232 544.83 178.882 552.944C178.882 550.476 179.045 546.374 179.206 542.335L179.206 542.334C179.362 538.421 179.515 534.569 179.515 532.323C170.563 538.429 152.573 561.823 140.031 579.232C136.948 583.513 134.193 587.431 131.984 590.642Z" fill="#112055"/>
    <path d="M49.5952 477.807C56.1863 526.491 96.7045 563.173 116.14 575.429C119.356 573.674 123.248 570.86 127.547 567.334C145.613 552.515 171.607 524.474 184.064 510.136C186.599 499.994 192.81 477.807 197.373 470.201C190.697 462.07 184.668 453.385 179.36 444.21C164.078 444.207 130.802 443.696 118.675 441.675C102.538 444.903 78.3049 459.316 61.003 470.286C56.5609 473.103 52.6593 475.692 49.5952 477.807Z" fill="#112055"/>
    <path d="M21.0761 344.688C1.30286 399.964 27.6249 444.633 43.2576 460.058C46.6757 459.587 51.0505 458.535 55.9329 457.121C72.0528 452.454 93.7064 443.842 104.732 439.139L100.714 434.068C111.488 418.854 137.472 385.765 155.218 375.115C153.689 365.028 152.898 354.658 152.898 344.054C146.771 340.884 133.125 333.784 127.547 330.742C107.167 329.007 61.8128 336.747 33.7514 342.145C29.0034 343.059 24.7141 343.923 21.0761 344.688Z" fill="#112055"/>
    <path d="M48.9616 210.3C12.4571 262.534 17.2737 308.133 24.245 324.403C25.9899 324.954 29.3136 325.347 33.7514 325.614C53.8141 326.819 96.6472 325.441 119.309 324.403C108.746 317.007 86.987 300.948 84.452 295.877C97.7609 288.904 132.111 274.578 163.038 273.056H165.025C167.248 266.803 169.76 260.695 172.544 254.748L170.009 253.405C162.735 249.84 153.645 245.31 143.799 240.302C112.786 226.474 80.6827 217.301 60.3692 212.671C55.9702 211.668 52.124 210.878 48.9616 210.3Z" fill="#112055"/>
    <path d="M128.815 100.001C81.6635 119.271 62.693 169.308 59.1017 191.917C60.9283 193.668 63.9869 195.926 67.9743 198.553C84.4926 209.436 116.951 226.645 143.799 240.302C152.729 244.283 161.568 248.65 170.009 253.405L172.544 254.748C174.063 251.504 175.663 248.309 177.341 245.165L176.981 243.897C167.263 226.148 146.94 185.958 143.391 167.195C159.447 169.519 193.839 175.182 202.965 179.239C195.207 167.371 158.457 129.621 135.786 106.941C133.269 104.423 130.926 102.091 128.815 100.001Z" fill="#112055"/>
    <path d="M246.06 30.2714C198.402 29.7642 158.179 65.5587 144.025 83.5193C144.71 85.9666 147.185 90.1698 150.916 95.5634C166.513 118.111 204.056 161.461 224.512 184.31L225.335 185.866C233.004 179.43 241.169 173.57 249.773 168.353C246.721 149.529 254.471 105.668 258.735 86.0549L271.41 94.9295C269.25 83.6902 257.725 56.2988 249.791 38.5121C248.417 35.4328 247.151 32.6413 246.06 30.2714Z" fill="#112055"/>
    <path d="M384.124 24.5662C383.709 50.3108 382.183 91.0855 378.515 94.2956C381.05 93.7885 387.599 85.6323 390.557 81.6176C389.543 76.5463 397.739 43.1607 401.964 27.1018L384.124 24.5662Z" fill="#030303"/>
    <path d="M528.082 73.3294C526.561 73.8365 516.252 67.0526 511.604 62.9396C497.264 89.8928 469.231 141.532 453.959 165.884L453.974 165.892C457.065 163.336 467.051 157.251 471.678 154.516C485.879 129.315 512.877 92.9006 528.082 73.3294Z" fill="#030303"/>
    <path d="M249.791 38.5121C257.725 56.2988 269.25 83.6902 271.41 94.9295L287.254 108.875C281.859 98.981 273.073 58.7727 268.06 33.4409C264.872 39.0192 254.552 39.146 249.791 38.5121Z" fill="#030303"/>
    <path d="M224.512 184.31C204.056 161.461 166.513 118.111 150.916 95.5634C149.042 100.19 143.391 108.944 135.786 106.941C158.457 129.621 195.207 167.371 202.965 179.239C208.88 181.352 221.09 185.831 222.611 186.846L223.438 187.479C224.067 186.938 224.699 186.4 225.335 185.866L224.512 184.31Z" fill="#030303"/>
    <path d="M67.9743 198.553C67.3405 203.204 64.9323 212.538 60.3692 212.671C80.6827 217.301 112.786 226.474 143.799 240.302C116.951 226.645 84.4926 209.436 67.9743 198.553Z" fill="#030303"/>
    <path d="M119.309 324.403C96.6472 325.441 53.8141 326.819 33.7514 325.614C35.4414 329.643 37.8074 338.59 33.7514 342.145C61.8128 336.747 107.167 329.007 127.547 330.742L119.309 324.403Z" fill="#030303"/>
    <path d="M104.732 439.139C93.7064 443.842 72.0528 452.454 55.9329 457.121C59.3129 460.421 65.059 467.673 61.003 470.286C78.3049 459.316 102.538 444.903 118.675 441.675L104.732 439.139Z" fill="#030303"/>
    <path d="M184.064 510.136C171.607 524.474 145.613 552.515 127.547 567.334C131.434 568.976 139.371 573.654 140.031 579.232C152.573 561.823 170.563 538.429 179.515 532.323C180.149 527.252 182.542 515.208 184.064 510.136Z" fill="#030303"/>
    <path d="M279.016 529.076C270.023 556.24 251.17 609.653 238.255 635.572C243.745 637.474 253.952 645.031 253.4 647.06C254.227 644.028 255.115 640.756 256.054 637.296L256.056 637.289L256.06 637.275L256.061 637.271L256.071 637.233L256.423 635.937C257.273 632.805 258.163 629.53 259.084 626.151C266.455 599.114 275.858 565.457 283.452 545.391V530.737C281.964 530.2 280.486 529.646 279.016 529.076Z" fill="#030303"/>
    <path d="M361.292 543.006C364.759 573.006 369.441 630.194 367.552 657.836C370.215 656.146 376.851 653.145 384.633 657.202C378.525 626.224 370.131 574.729 371.439 542.45C368.049 542.722 364.736 542.903 361.292 543.006C361.119 543.011 360.945 543.016 360.772 543.021L361.292 543.006Z" fill="#030303"/>
    <path d="M512.642 619.802C492.755 593.942 460.518 549.866 454.566 527.886L454.566 546.977C465.712 566.556 487.078 605.827 495.697 627.409C500.21 619.802 508.874 619.168 512.642 619.802Z" fill="#030303"/>
    <path d="M666.875 409.461C649.925 407.845 619.227 404.341 597.162 399.837L575.424 405.684C589.335 406.289 626.41 412.005 661.805 427.911C657.326 421.463 663.319 412.925 666.875 409.461Z" fill="#030303"/>
    <path d="M666.875 274.251C644.903 283.38 601.213 297.95 564.206 298.413L551.874 304.752C552.226 306.849 552.546 308.959 552.834 311.081C579.843 303.535 638.653 289.922 670.044 292.088C664.489 289.563 665.406 279.145 666.875 274.251Z" fill="#030303"/>
    <path fill-rule="evenodd" clip-rule="evenodd" d="M606.034 553.242C595.26 574.583 562.685 619.295 518.576 627.409C516.772 625.133 514.778 622.58 512.642 619.802C492.755 593.942 460.518 549.866 454.566 527.886V516.616C464.204 511.024 473.314 504.637 481.818 497.542C496.521 505.149 541.602 513.812 562.305 517.193L560.404 512.672C562.703 514.54 565.382 516.661 568.26 518.94C578.817 527.297 592.055 537.778 599.063 545.709C599.947 546.709 601.093 547.828 602.202 548.911C604.005 550.67 605.71 552.335 606.034 553.242Z" fill="#112055"/>
    <path d="M599.063 545.709C596.315 542.219 606.368 534.44 610.471 530.353C608.734 529.512 606.933 528.646 605.086 527.758C586.093 518.628 562.387 507.232 556.382 497.221C557.65 501.447 558.883 507.601 560.404 512.672C562.703 514.54 565.382 516.661 568.26 518.94C578.817 527.297 592.055 537.778 599.063 545.709Z" fill="#030303"/>
    <path fill-rule="evenodd" clip-rule="evenodd" d="M626.948 165.927C643.426 180.929 675.621 223.105 672.579 271.789C670.895 272.548 668.985 273.374 666.875 274.251C644.903 283.38 601.213 297.95 564.206 298.413C573.839 295.37 600.119 265.027 610.471 250.236C596.773 246.231 561.342 238.61 528.959 240.082C527.716 237.896 526.432 235.738 525.108 233.607C551.5 213.623 603.473 174.835 623.146 166.822C625.369 165.917 625.589 165.919 626.631 165.925C626.729 165.926 626.834 165.927 626.948 165.927Z" fill="#112055"/>
    <path d="M623.146 166.822C615.034 161.453 610.682 154.416 610.471 151.251C581.945 175.587 530.495 218.085 517.995 222.958C520.478 226.422 522.851 229.974 525.108 233.607C551.5 213.623 603.473 174.835 623.146 166.822Z" fill="#030303"/>
    <path d="M388.022 671.148C439.229 681.29 483.297 652.554 498.929 636.917C498.325 634.424 497.206 631.187 495.697 627.409C487.078 605.827 465.712 566.556 454.566 546.977C452.665 565.547 448.356 602.179 446.328 600.151C443.792 597.615 401.964 565.286 389.289 545.001L387.388 540.535C383.923 541.132 375.312 542.06 371.439 542.45C370.131 574.729 378.525 626.224 384.633 657.202C385.626 662.238 387.195 667.366 388.022 671.148Z" fill="#112055"/>
    <path fill-rule="evenodd" clip-rule="evenodd" d="M384.219 16.9594C334.533 -7.88965 284.93 11.6768 266.34 24.5662C266.842 27.2198 267.42 30.2093 268.06 33.4409C273.073 58.7727 281.859 98.981 287.254 108.875C297.183 118.384 316.534 137.967 317.041 143.038L317.042 143.038C323.626 141.815 339.94 139.484 352.531 139.937C351.01 134.358 369.22 107.185 378.515 94.2956C382.183 91.0855 383.709 50.3108 384.124 24.5662C384.167 21.8415 384.199 19.2851 384.219 16.9594Z" fill="#112055"/>
    <path fill-rule="evenodd" clip-rule="evenodd" d="M352.76 139.937L352.531 139.937C339.94 139.484 323.626 141.815 317.042 143.038L317.041 143.038C292.677 147.364 270.011 156.082 249.773 168.353C241.169 173.57 233.004 179.43 225.335 185.866C224.699 186.4 224.067 186.938 223.438 187.479C204.76 203.561 189.114 223.11 177.341 245.165C175.663 248.309 174.063 251.504 172.544 254.748C169.76 260.695 167.248 266.803 165.025 273.056C157.161 295.168 152.898 319.087 152.898 344.054C152.898 354.658 153.689 365.028 155.218 375.115C159.01 400.147 167.338 423.433 179.36 444.21C184.668 453.385 190.697 462.07 197.373 470.201C197.502 470.358 197.632 470.515 197.761 470.673C212.949 489.051 231.455 504.573 252.437 516.476C260.911 521.283 269.789 525.5 279.016 529.076C280.486 529.646 281.964 530.2 283.452 530.737C305.654 538.753 329.775 543.099 355.066 543.099C356.975 543.099 359.398 543.058 361.292 543.006C364.736 542.903 368.049 542.722 371.439 542.45C375.312 542.06 383.923 541.132 387.388 540.535C411.649 536.63 434.279 528.385 454.566 516.616C464.204 511.024 473.314 504.637 481.818 497.542C499.952 482.412 515.336 464.062 527.229 443.339L527.238 443.324L527.311 443.197C533.065 433.151 537.998 422.824 542.027 412.131C550.232 390.351 554.685 367.053 554.685 341.518C554.685 332.018 554.065 320.17 552.834 311.081C552.546 308.959 552.226 306.849 551.874 304.752C551.693 303.671 551.503 302.593 551.305 301.519C547.224 279.41 539.574 258.749 528.959 240.082C527.716 237.896 526.432 235.738 525.108 233.607C522.851 229.974 520.478 226.422 517.995 222.958C515.162 219.004 512.184 215.163 509.069 211.441C493.804 193.198 475.247 177.812 454.239 166.04L453.932 165.927L453.959 165.884C443.675 160.144 432.806 155.268 421.449 151.347C400.062 143.963 376.948 139.962 352.76 139.937ZM351.898 499.994C439.401 499.994 510.337 429.042 510.337 341.518C510.337 253.994 439.401 183.042 351.898 183.042C264.394 183.042 193.458 253.994 193.458 341.518C193.458 429.042 264.394 499.994 351.898 499.994Z" fill="#E9BAA0"/>
    <path d="M510.337 341.518C510.337 429.042 439.401 499.994 351.898 499.994C264.394 499.994 193.458 429.042 193.458 341.518C193.458 253.994 264.394 183.042 351.898 183.042C439.401 183.042 510.337 253.994 510.337 341.518Z" fill="#E9BAA0"/>
    <path d="M378.515 94.2956C382.183 91.0855 383.709 50.3108 384.124 24.5662M378.515 94.2956C381.05 93.7885 387.599 85.6323 390.557 81.6176M378.515 94.2956C369.22 107.185 351.01 134.358 352.531 139.937M384.124 24.5662C384.167 21.8415 384.199 19.2851 384.219 16.9594C334.533 -7.88965 284.93 11.6768 266.34 24.5662C266.842 27.2198 267.42 30.2093 268.06 33.4409M384.124 24.5662L401.964 27.1018M401.964 27.1018C397.739 43.1607 389.543 76.5463 390.557 81.6176M401.964 27.1018L404.499 19.495C427.737 15.4803 482.198 17.5933 514.139 58.1631C513.353 59.6492 512.506 61.2456 511.604 62.9396M390.557 81.6176L398.162 73.3294C407.035 92.7849 424.146 135.373 421.611 150.079L421.449 151.347M453.932 165.927L454.239 166.04M453.932 165.927C453.946 165.915 453.96 165.904 453.974 165.892M453.932 165.927C453.941 165.913 453.95 165.898 453.959 165.884M453.932 165.927L453.959 165.884M511.604 62.9396C516.252 67.0526 526.561 73.8365 528.082 73.3294M511.604 62.9396C497.264 89.8928 469.231 141.532 453.959 165.884M528.082 73.3294C529.705 71.2402 531.194 69.3429 532.518 67.6717M528.082 73.3294C512.877 92.9006 485.879 129.315 471.678 154.516M532.518 67.6717C518.787 84.9984 487.395 126.625 471.678 154.516M532.518 67.6717C553.644 74.6446 599.823 100.254 615.541 146.91C613.95 148.277 612.256 149.728 610.471 151.251M471.678 154.516C478.269 149.445 513.294 137.063 529.35 132.203C526.392 155.235 518.196 203.327 509.069 211.441M471.678 154.516C467.051 157.251 457.065 163.336 453.974 165.892M517.995 222.958C515.162 219.004 512.184 215.163 509.069 211.441M517.995 222.958C501.274 199.627 479.533 180.213 454.239 166.04M517.995 222.958C530.495 218.085 581.945 175.587 610.471 151.251M517.995 222.958C517.977 222.965 518.013 222.951 517.995 222.958ZM517.995 222.958C520.478 226.422 522.851 229.974 525.108 233.607M524.913 233.754C524.978 233.705 525.043 233.656 525.108 233.607M564.206 298.413C601.213 297.95 644.903 283.38 666.875 274.251M564.206 298.413C573.839 295.37 600.119 265.027 610.471 250.236C596.773 246.231 561.342 238.61 528.959 240.082M564.206 298.413L551.874 304.752M552.799 311.091C552.81 311.087 552.834 311.081 552.834 311.081M675.114 292.708C684.62 311.091 697.422 360.282 672.579 409.98C670.925 409.838 669.009 409.664 666.875 409.461M675.114 292.708L674.912 292.676M675.114 292.708C675.046 292.697 674.978 292.686 674.912 292.676M597.162 399.837C619.227 404.341 649.925 407.845 666.875 409.461M597.162 399.837L623.146 390.963C610.048 377.228 578.008 348.111 554.685 341.518M597.162 399.837L575.424 405.684M610.471 151.251C610.682 154.416 615.034 161.453 623.146 166.822M623.146 166.822C603.473 174.835 551.5 213.623 525.108 233.607M623.146 166.822C625.369 165.917 625.589 165.919 626.631 165.925C626.729 165.926 626.834 165.927 626.948 165.927C643.426 180.929 675.621 223.105 672.579 271.789C670.895 272.548 668.985 273.374 666.875 274.251M666.875 274.251C665.406 279.145 664.489 289.563 670.044 292.088M670.044 292.088C638.653 289.922 579.843 303.535 552.834 311.081M670.044 292.088C671.987 292.222 673.238 292.416 674.912 292.676M575.424 405.684C589.335 406.289 626.41 412.005 661.805 427.911M575.424 405.684C565.684 408.586 545.657 413.846 542.027 412.131M556.382 497.221C556.382 492.15 536.947 459.187 527.229 443.339M556.382 497.221C557.65 501.447 558.883 507.601 560.404 512.672M556.382 497.221C562.387 507.232 586.093 518.628 605.086 527.758C606.933 528.646 608.734 529.512 610.471 530.353M666.875 409.461C663.319 412.925 657.326 421.463 661.805 427.911M661.805 427.911C663.496 428.671 665.187 429.455 666.875 430.265C669.832 452.029 664.34 503.29 618.709 534.225C616.281 533.123 613.495 531.818 610.471 530.353M560.404 512.672L562.305 517.193C541.602 513.812 496.521 505.149 481.818 497.542M560.404 512.672C562.703 514.54 565.382 516.661 568.26 518.94C578.817 527.297 592.055 537.778 599.063 545.709M454.566 527.886C460.518 549.866 492.755 593.942 512.642 619.802M454.566 527.886L454.566 546.977M454.566 527.886V516.616M610.471 530.353C606.368 534.44 596.315 542.219 599.063 545.709M599.063 545.709C599.947 546.709 601.093 547.828 602.202 548.911C604.005 550.67 605.71 552.335 606.034 553.242C595.26 574.583 562.685 619.295 518.576 627.409C516.772 625.133 514.778 622.58 512.642 619.802M454.566 546.977C465.712 566.556 487.078 605.827 495.697 627.409M454.566 546.977C452.665 565.547 448.356 602.179 446.328 600.151C443.792 597.615 401.964 565.286 389.289 545.001L387.388 540.535M371.439 542.45C370.131 574.729 378.525 626.224 384.633 657.202M371.439 542.45C368.049 542.722 364.736 542.903 361.292 543.006M371.439 542.45C375.312 542.06 383.923 541.132 387.388 540.535M512.642 619.802C508.874 619.168 500.21 619.802 495.697 627.409M495.697 627.409C497.206 631.187 498.325 634.424 498.929 636.917C483.297 652.554 439.229 681.29 388.022 671.148C387.195 667.366 385.626 662.238 384.633 657.202M361.292 543.006C364.759 573.006 369.441 630.194 367.552 657.836M361.292 543.006C359.398 543.058 356.975 543.099 355.066 543.099M361.292 543.006C361.119 543.011 360.945 543.016 360.772 543.021M361.292 543.006L360.772 543.021M283.452 545.391C285.48 563.707 300.141 596.82 306.901 610.293C315.013 606.743 342.391 564.018 355.066 543.099M283.452 545.391V530.737M283.452 545.391C275.858 565.457 266.455 599.114 259.084 626.151C258.163 629.53 257.273 632.805 256.423 635.937M367.552 657.836C367.14 663.877 366.388 668.511 365.206 671.148C343.447 678.544 290.043 686.235 250.496 657.836C251.324 654.716 252.302 651.084 253.4 647.06M367.552 657.836C370.215 656.146 376.851 653.145 384.633 657.202M279.016 529.076C270.023 556.24 251.17 609.653 238.255 635.572M279.016 529.076C269.789 525.5 260.911 521.283 252.437 516.476M279.016 529.076C280.486 529.646 281.964 530.2 283.452 530.737M279.016 529.076C246.946 516.646 219.083 496.474 197.761 470.673M179.515 532.323C170.563 538.429 152.573 561.823 140.031 579.232M179.515 532.323C180.149 527.252 182.542 515.208 184.064 510.136M179.515 532.323C179.515 534.569 179.362 538.421 179.206 542.334L179.206 542.335C179.045 546.374 178.882 550.476 178.882 552.944C204.232 544.83 238.283 525.139 252.437 516.476M238.255 635.572C236 640.098 233.292 647.032 231.484 649.595C214.161 649.384 170.009 637.298 131.984 590.642C134.193 587.431 136.948 583.513 140.031 579.232M238.255 635.572C243.745 637.474 253.952 645.031 253.4 647.06M253.4 647.06C254.227 644.028 255.115 640.756 256.054 637.296M184.064 510.136C171.607 524.474 145.613 552.515 127.547 567.334M184.064 510.136C186.599 499.994 192.81 477.807 197.373 470.201M118.675 441.675C102.538 444.903 78.3049 459.316 61.003 470.286M118.675 441.675L104.732 439.139M118.675 441.675C130.802 443.696 164.078 444.207 179.36 444.21M127.547 567.334C123.248 570.86 119.356 573.674 116.14 575.429C96.7045 563.173 56.1863 526.491 49.5952 477.807C52.6593 475.692 56.5609 473.103 61.003 470.286M127.547 567.334C131.434 568.976 139.371 573.654 140.031 579.232M104.732 439.139C93.7064 443.842 72.0528 452.454 55.9329 457.121M104.732 439.139L100.714 434.068C111.488 418.854 137.472 385.765 155.218 375.115M127.547 330.742C107.167 329.007 61.8128 336.747 33.7514 342.145M127.547 330.742C133.125 333.784 146.771 340.884 152.898 344.054M127.547 330.742L119.309 324.403M55.9329 457.121C51.0505 458.535 46.6757 459.587 43.2576 460.058C27.6249 444.633 1.30286 399.964 21.0761 344.688C24.7141 343.923 29.0034 343.059 33.7514 342.145M55.9329 457.121C59.3129 460.421 65.059 467.673 61.003 470.286M119.309 324.403C96.6472 325.441 53.8141 326.819 33.7514 325.614M119.309 324.403C108.746 317.007 86.987 300.948 84.452 295.877C97.7609 288.904 132.111 274.578 163.038 273.056H165.025M170.009 253.405L172.544 254.748M170.009 253.405C162.735 249.84 153.644 245.31 143.799 240.302M170.009 253.405C161.568 248.65 152.729 244.283 143.799 240.302M33.7514 325.614C29.3136 325.347 25.9899 324.954 24.245 324.403C17.2737 308.133 12.4571 262.534 48.9616 210.3C52.124 210.878 55.9702 211.668 60.3692 212.671M33.7514 325.614C35.4414 329.643 37.8074 338.59 33.7514 342.145M202.965 179.239C195.207 167.371 158.457 129.621 135.786 106.941M202.965 179.239C193.839 175.182 159.447 169.519 143.391 167.195C146.94 185.958 167.263 226.148 176.981 243.897L177.341 245.165M202.965 179.239C208.88 181.352 221.09 185.831 222.611 186.846L223.438 187.479M67.9743 198.553C63.9869 195.926 60.9283 193.668 59.1017 191.917C62.693 169.308 81.6634 119.271 128.815 100.001C130.926 102.091 133.269 104.423 135.786 106.941M67.9743 198.553C67.3405 203.204 64.9323 212.538 60.3692 212.671M67.9743 198.553C84.4926 209.436 116.951 226.645 143.799 240.302M60.3692 212.671C80.6827 217.301 112.786 226.474 143.799 240.302M271.41 94.9295C269.25 83.6902 257.725 56.2988 249.791 38.5121M271.41 94.9295L258.735 86.0549C254.471 105.668 246.721 149.529 249.773 168.353M271.41 94.9295L287.254 108.875M150.916 95.5634C166.513 118.111 204.056 161.461 224.512 184.31L225.335 185.866M150.916 95.5634C147.185 90.1698 144.71 85.9666 144.025 83.5193C158.179 65.5587 198.402 29.7642 246.06 30.2714C247.151 32.6413 248.417 35.4328 249.791 38.5121M150.916 95.5634C149.042 100.19 143.391 108.944 135.786 106.941M287.254 108.875C281.859 98.981 273.073 58.7727 268.06 33.4409M287.254 108.875C297.183 118.384 316.534 137.967 317.041 143.038M249.791 38.5121C254.552 39.146 264.872 39.0192 268.06 33.4409M249.791 168.462C249.785 168.426 249.779 168.39 249.773 168.353M317.041 143.038C292.677 147.364 270.011 156.082 249.773 168.353M317.041 143.038L317.042 143.038M352.531 139.937C352.608 139.937 352.684 139.937 352.76 139.937M352.531 139.937L352.76 139.937M352.531 139.937C339.94 139.484 323.626 141.815 317.042 143.038M509.069 211.441C493.804 193.198 475.247 177.812 454.239 166.04M528.716 240.093C528.797 240.09 528.878 240.086 528.959 240.082M551.874 304.752C552.226 306.849 552.546 308.959 552.834 311.081M551.874 304.752C551.693 303.671 551.503 302.593 551.305 301.519M554.685 341.518C554.685 332.018 554.065 320.17 552.834 311.081M554.685 341.518C554.685 367.053 550.232 390.351 542.027 412.131M541.835 412.023C541.892 412.061 541.957 412.097 542.027 412.131M527.229 443.339C515.336 464.062 499.952 482.412 481.818 497.542M527.229 443.339L527.238 443.324M527.229 443.339C527.232 443.334 527.235 443.329 527.238 443.324M481.818 497.542C473.314 504.637 464.204 511.024 454.566 516.616M454.566 516.476V516.616M355.066 543.099C329.775 543.099 305.654 538.753 283.452 530.737M355.066 543.099C291.116 543.099 234.649 515.31 197.761 470.673M355.066 543.099C356.976 543.099 358.877 543.073 360.772 543.021M252.437 516.476C231.455 504.573 212.949 489.051 197.761 470.673M197.373 470.201C190.697 462.07 184.668 453.385 179.36 444.21M197.373 470.201C197.502 470.358 197.632 470.515 197.761 470.673M179.516 444.21C179.464 444.21 179.412 444.21 179.36 444.21M155.218 375.115C159.01 400.147 167.338 423.433 179.36 444.21M155.218 375.115C153.689 365.028 152.898 354.658 152.898 344.054M152.898 344.054C152.898 319.087 157.161 295.168 165.025 273.056M152.898 344.054C152.898 380.974 162.494 415.061 179.36 444.21M352.76 139.937C376.948 139.962 400.062 143.963 421.449 151.347M421.449 151.347C432.806 155.268 443.675 160.144 453.959 165.884M454.239 166.04C454.15 165.991 454.062 165.942 453.974 165.892M387.388 540.535C411.649 536.63 434.279 528.385 454.566 516.616M165.025 273.056C167.248 266.803 169.76 260.695 172.544 254.748M172.544 254.748C174.063 251.504 175.663 248.309 177.341 245.165M177.341 245.165C189.114 223.11 204.76 203.561 223.438 187.479M223.438 187.479C224.067 186.938 224.699 186.4 225.335 185.866M225.335 185.866C233.004 179.43 241.169 173.57 249.773 168.353M249.773 168.353C270.011 156.082 292.678 147.363 317.042 143.038M453.974 165.892C453.969 165.89 453.964 165.887 453.959 165.884M453.974 165.892L453.959 165.884M528.959 240.082C539.574 258.749 547.224 279.41 551.305 301.519M528.959 240.082C527.716 237.896 526.432 235.737 525.108 233.607M552.834 311.081C552.398 307.865 551.888 304.677 551.305 301.519M454.566 516.616C484.761 499.098 509.767 473.772 527.238 443.324M179.36 444.21C184.771 453.563 190.93 462.406 197.761 470.673M527.311 443.197C533.065 433.151 537.998 422.824 542.027 412.131M527.311 443.197L527.238 443.324M527.311 443.197C527.287 443.239 527.262 443.282 527.238 443.324M256.06 637.275L256.056 637.289M256.06 637.275C256.059 637.28 256.057 637.284 256.056 637.289M256.06 637.275L256.061 637.271M256.06 637.275C256.064 637.261 256.068 637.247 256.071 637.233M256.056 637.289L256.054 637.296M256.056 637.289C256.055 637.291 256.055 637.294 256.054 637.296M256.061 637.271L256.071 637.233M256.061 637.271C256.064 637.259 256.068 637.246 256.071 637.233M256.423 635.937C256.305 636.372 256.188 636.804 256.071 637.233M256.423 635.937L256.071 637.233M510.337 341.518C510.337 429.042 439.401 499.994 351.898 499.994C264.394 499.994 193.458 429.042 193.458 341.518C193.458 253.994 264.394 183.042 351.898 183.042C439.401 183.042 510.337 253.994 510.337 341.518Z" stroke="#55111E"/>
  </mask>
  <g mask="url(#mask0_301_107)">
    <rect x="268.442" y="155.219" width="156.031" height="128" transform="rotate(-93.2207 268.442 155.219)" fill="url(#paint0_linear_301_107)"/>
    <rect x="345" y="143.668" width="156.031" height="128" transform="rotate(-67.9985 345 143.668)" fill="url(#paint1_linear_301_107)"/>
    <rect x="427.995" y="163.552" width="156.031" height="128" transform="rotate(-44.0486 427.995 163.552)" fill="url(#paint2_linear_301_107)"/>
    <rect x="498" y="221.937" width="156.031" height="128" transform="rotate(-25.404 498 221.937)" fill="url(#paint3_linear_301_107)"/>
    <rect x="543.87" y="284" width="156.031" height="128" transform="rotate(5.32096 543.87 284)" fill="url(#paint4_linear_301_107)"/>
    <rect x="559.997" y="363" width="156.031" height="128" transform="rotate(28.9702 559.997 363)" fill="url(#paint5_linear_301_107)"/>
    <rect x="518.455" y="450" width="156.031" height="128" transform="rotate(47.5553 518.455 450)" fill="url(#paint6_linear_301_107)"/>
    <rect x="469.978" y="516" width="156.031" height="128" transform="rotate(77.5243 469.978 516)" fill="url(#paint7_linear_301_107)"/>
    <rect x="243.801" y="14" width="156.031" height="128" transform="rotate(61.7941 243.801 14)" fill="url(#paint8_linear_301_107)"/>
    <rect x="105.378" y="89" width="156.031" height="128" transform="rotate(36.0781 105.378 89)" fill="url(#paint9_linear_301_107)"/>
    <rect x="29.5449" y="209" width="156.031" height="128" transform="rotate(6.97559 29.5449 209)" fill="url(#paint10_linear_301_107)"/>
    <rect x="-7" y="354.881" width="156.031" height="128" transform="rotate(-16.7168 -7 354.881)" fill="url(#paint11_linear_301_107)"/>
    <rect x="31" y="485.577" width="156.031" height="128" transform="rotate(-33.2617 31 485.577)" fill="url(#paint12_linear_301_107)"/>
    <rect x="120" y="611.977" width="156.031" height="128" transform="rotate(-59.8898 120 611.977)" fill="url(#paint13_linear_301_107)"/>
    <rect x="243" y="677.362" width="156.031" height="128" transform="rotate(-81.6102 243 677.362)" fill="url(#paint14_linear_301_107)"/>
  </g>
  <mask id="mask1_301_107" style="mask-type:alpha" maskUnits="userSpaceOnUse" x="14" y="5" width="673" height="673">
    <path d="M258.735 86.0549C254.471 105.668 246.721 149.529 249.773 168.353C270.011 156.082 292.677 147.364 317.041 143.038C316.534 137.967 297.183 118.384 287.254 108.875L271.41 94.9295L258.735 86.0549Z" fill="#112055"/>
    <path d="M398.162 73.3294L390.557 81.6176C387.599 85.6323 381.05 93.7885 378.515 94.2956C369.22 107.185 351.01 134.358 352.531 139.937L352.76 139.937C376.948 139.962 400.062 143.963 421.449 151.347L421.611 150.079C424.146 135.373 407.035 92.7849 398.162 73.3294Z" fill="#112055"/>
    <path d="M529.35 132.203C513.294 137.063 478.269 149.445 471.678 154.516C467.051 157.251 457.065 163.336 453.974 165.892C454.062 165.942 454.15 165.991 454.239 166.04C475.247 177.812 493.804 193.198 509.069 211.441C518.196 203.327 526.392 155.235 529.35 132.203Z" fill="#112055"/>
    <path d="M454.566 527.886V516.616C434.279 528.385 411.649 536.63 387.388 540.535L389.289 545.001C401.964 565.286 443.792 597.615 446.328 600.151C448.356 602.179 452.665 565.547 454.566 546.977L454.566 527.886Z" fill="#112055"/>
    <path d="M306.901 610.293C315.013 606.743 342.391 564.018 355.066 543.099C329.775 543.099 305.654 538.753 283.452 530.737V545.391C285.48 563.707 300.141 596.82 306.901 610.293Z" fill="#112055"/>
    <path d="M118.675 441.675C130.802 443.696 164.078 444.207 179.36 444.21C167.338 423.433 159.01 400.147 155.218 375.115C137.472 385.765 111.488 418.854 100.714 434.068L104.732 439.139L118.675 441.675Z" fill="#112055"/>
    <path d="M127.547 330.742C133.125 333.784 146.771 340.884 152.898 344.054C152.898 319.087 157.161 295.168 165.025 273.056H163.038C132.111 274.578 97.7609 288.904 84.452 295.877C86.987 300.948 108.746 317.007 119.309 324.403L127.547 330.742Z" fill="#112055"/>
    <path d="M143.391 167.195C146.94 185.958 167.263 226.148 176.981 243.897L177.341 245.165C189.114 223.11 204.76 203.561 223.438 187.479L222.611 186.846C221.09 185.831 208.88 181.352 202.965 179.239C193.839 175.182 159.447 169.519 143.391 167.195Z" fill="#112055"/>
    <path d="M556.382 497.221C556.382 492.15 536.947 459.187 527.229 443.339C515.336 464.062 499.952 482.412 481.818 497.542C496.521 505.149 541.602 513.812 562.305 517.193L560.404 512.672C558.883 507.601 557.65 501.447 556.382 497.221Z" fill="#112055"/>
    <path fill-rule="evenodd" clip-rule="evenodd" d="M551.874 304.752L564.206 298.413C573.839 295.37 600.119 265.027 610.471 250.236C596.773 246.231 561.342 238.61 528.959 240.082C539.574 258.749 547.224 279.41 551.305 301.519C551.503 302.593 551.693 303.671 551.874 304.752Z" fill="#112055"/>
    <path fill-rule="evenodd" clip-rule="evenodd" d="M623.146 390.963L597.162 399.837L575.424 405.684C565.684 408.586 545.657 413.846 542.027 412.131C550.232 390.351 554.685 367.053 554.685 341.518C578.008 348.111 610.048 377.228 623.146 390.963Z" fill="#112055"/>
    <path fill-rule="evenodd" clip-rule="evenodd" d="M179.515 532.323C179.515 534.569 179.362 538.421 179.206 542.334L179.206 542.335C179.045 546.374 178.882 550.476 178.882 552.944C204.232 544.83 238.283 525.139 252.437 516.476C231.455 504.573 212.949 489.051 197.761 470.673C197.632 470.515 197.502 470.358 197.373 470.201C192.81 477.807 186.599 499.994 184.064 510.136C182.542 515.208 180.149 527.252 179.515 532.323Z" fill="#112055"/>
    <path d="M401.964 27.1018C397.739 43.1607 389.543 76.5463 390.557 81.6176L398.162 73.3294C407.035 92.7849 424.146 135.373 421.611 150.079L421.449 151.347C432.806 155.268 443.675 160.144 453.959 165.884C469.231 141.532 497.264 89.8928 511.604 62.9396C512.506 61.2456 513.353 59.6492 514.139 58.1631C482.198 17.5933 427.737 15.4803 404.499 19.495L401.964 27.1018Z" fill="#112055"/>
    <path d="M532.518 67.6717C531.194 69.3429 529.705 71.2402 528.082 73.3294C512.877 92.9006 485.879 129.315 471.678 154.516C478.269 149.445 513.294 137.063 529.35 132.203C526.392 155.235 518.196 203.327 509.069 211.441C512.184 215.163 515.162 219.004 517.995 222.958C530.495 218.085 581.945 175.587 610.471 151.251C612.255 149.728 613.95 148.277 615.541 146.91C599.823 100.254 553.644 74.6446 532.518 67.6717Z" fill="#112055"/>
    <path d="M672.579 409.98C697.422 360.282 684.62 311.091 675.114 292.708L674.912 292.676C673.238 292.416 671.987 292.222 670.044 292.088C638.653 289.922 579.843 303.535 552.834 311.081C554.065 320.17 554.685 332.018 554.685 341.518C578.008 348.111 610.048 377.228 623.146 390.963L597.162 399.837C619.227 404.341 649.925 407.845 666.875 409.461C669.009 409.664 670.925 409.838 672.579 409.98Z" fill="#112055"/>
    <path d="M618.709 534.225C664.34 503.29 669.832 452.029 666.875 430.265C665.187 429.455 663.496 428.671 661.805 427.911C626.41 412.005 589.335 406.289 575.424 405.684C565.684 408.586 545.657 413.846 542.027 412.131C537.998 422.824 533.065 433.151 527.311 443.197L527.238 443.324L527.229 443.339C536.947 459.187 556.382 492.15 556.382 497.221C562.387 507.232 586.093 518.628 605.086 527.758C606.933 528.646 608.734 529.512 610.471 530.353C613.495 531.818 616.281 533.123 618.709 534.225Z" fill="#112055"/>
    <path fill-rule="evenodd" clip-rule="evenodd" d="M256.06 637.275L256.061 637.271C256.064 637.259 256.068 637.246 256.071 637.233C256.068 637.247 256.064 637.261 256.06 637.275Z" fill="#E9BAA0"/>
    <path d="M250.496 657.836C290.043 686.235 343.447 678.544 365.206 671.148C366.388 668.511 367.14 663.877 367.552 657.836C369.441 630.194 364.759 573.006 361.292 543.006C359.398 543.058 356.975 543.099 355.066 543.099C342.391 564.018 315.013 606.743 306.901 610.293C300.141 596.82 285.48 563.707 283.452 545.391C275.858 565.457 266.455 599.114 259.084 626.151C258.163 629.53 257.273 632.805 256.423 635.937C256.305 636.372 256.188 636.804 256.071 637.233L256.061 637.271L256.06 637.275L256.056 637.289L256.054 637.296C255.115 640.756 254.227 644.028 253.4 647.06C252.302 651.084 251.324 654.716 250.496 657.836Z" fill="#112055"/>
    <path d="M131.984 590.642C170.009 637.298 214.161 649.384 231.484 649.595C233.292 647.032 236 640.098 238.255 635.572C251.17 609.653 270.023 556.24 279.016 529.076C269.789 525.5 260.911 521.283 252.437 516.476C238.283 525.139 204.232 544.83 178.882 552.944C178.882 550.476 179.045 546.374 179.206 542.335L179.206 542.334C179.362 538.421 179.515 534.569 179.515 532.323C170.563 538.429 152.573 561.823 140.031 579.232C136.948 583.513 134.193 587.431 131.984 590.642Z" fill="#112055"/>
    <path d="M49.5952 477.807C56.1863 526.491 96.7045 563.173 116.14 575.429C119.356 573.674 123.248 570.86 127.547 567.334C145.613 552.515 171.607 524.474 184.064 510.136C186.599 499.994 192.81 477.807 197.373 470.201C190.697 462.07 184.668 453.385 179.36 444.21C164.078 444.207 130.802 443.696 118.675 441.675C102.538 444.903 78.3049 459.316 61.003 470.286C56.5609 473.103 52.6593 475.692 49.5952 477.807Z" fill="#112055"/>
    <path d="M21.0761 344.688C1.30286 399.964 27.6249 444.633 43.2576 460.058C46.6757 459.587 51.0505 458.535 55.9329 457.121C72.0528 452.454 93.7064 443.842 104.732 439.139L100.714 434.068C111.488 418.854 137.472 385.765 155.218 375.115C153.689 365.028 152.898 354.658 152.898 344.054C146.771 340.884 133.125 333.784 127.547 330.742C107.167 329.007 61.8128 336.747 33.7514 342.145C29.0034 343.059 24.7141 343.923 21.0761 344.688Z" fill="#112055"/>
    <path d="M48.9616 210.3C12.4571 262.534 17.2737 308.133 24.245 324.403C25.9899 324.954 29.3136 325.347 33.7514 325.614C53.8141 326.819 96.6472 325.441 119.309 324.403C108.746 317.007 86.987 300.948 84.452 295.877C97.7609 288.904 132.111 274.578 163.038 273.056H165.025C167.248 266.803 169.76 260.695 172.544 254.748L170.009 253.405C162.735 249.84 153.645 245.31 143.799 240.302C112.786 226.474 80.6827 217.301 60.3692 212.671C55.9702 211.668 52.124 210.878 48.9616 210.3Z" fill="#112055"/>
    <path d="M128.815 100.001C81.6635 119.271 62.693 169.308 59.1017 191.917C60.9283 193.668 63.9869 195.926 67.9743 198.553C84.4926 209.436 116.951 226.645 143.799 240.302C152.729 244.283 161.568 248.65 170.009 253.405L172.544 254.748C174.063 251.504 175.663 248.309 177.341 245.165L176.981 243.897C167.263 226.148 146.94 185.958 143.391 167.195C159.447 169.519 193.839 175.182 202.965 179.239C195.207 167.371 158.457 129.621 135.786 106.941C133.269 104.423 130.926 102.091 128.815 100.001Z" fill="#112055"/>
    <path d="M246.06 30.2714C198.402 29.7642 158.179 65.5587 144.025 83.5193C144.71 85.9666 147.185 90.1698 150.916 95.5634C166.513 118.111 204.056 161.461 224.512 184.31L225.335 185.866C233.004 179.43 241.169 173.57 249.773 168.353C246.721 149.529 254.471 105.668 258.735 86.0549L271.41 94.9295C269.25 83.6902 257.725 56.2988 249.791 38.5121C248.417 35.4328 247.151 32.6413 246.06 30.2714Z" fill="#112055"/>
    <path d="M384.124 24.5662C383.709 50.3108 382.183 91.0855 378.515 94.2956C381.05 93.7885 387.599 85.6323 390.557 81.6176C389.543 76.5463 397.739 43.1607 401.964 27.1018L384.124 24.5662Z" fill="#030303"/>
    <path d="M528.082 73.3294C526.561 73.8365 516.252 67.0526 511.604 62.9396C497.264 89.8928 469.231 141.532 453.959 165.884L453.974 165.892C457.065 163.336 467.051 157.251 471.678 154.516C485.879 129.315 512.877 92.9006 528.082 73.3294Z" fill="#030303"/>
    <path d="M249.791 38.5121C257.725 56.2988 269.25 83.6902 271.41 94.9295L287.254 108.875C281.859 98.981 273.073 58.7727 268.06 33.4409C264.872 39.0192 254.552 39.146 249.791 38.5121Z" fill="#030303"/>
    <path d="M224.512 184.31C204.056 161.461 166.513 118.111 150.916 95.5634C149.042 100.19 143.391 108.944 135.786 106.941C158.457 129.621 195.207 167.371 202.965 179.239C208.88 181.352 221.09 185.831 222.611 186.846L223.438 187.479C224.067 186.938 224.699 186.4 225.335 185.866L224.512 184.31Z" fill="#030303"/>
    <path d="M67.9743 198.553C67.3405 203.204 64.9323 212.538 60.3692 212.671C80.6827 217.301 112.786 226.474 143.799 240.302C116.951 226.645 84.4926 209.436 67.9743 198.553Z" fill="#030303"/>
    <path d="M119.309 324.403C96.6472 325.441 53.8141 326.819 33.7514 325.614C35.4414 329.643 37.8074 338.59 33.7514 342.145C61.8128 336.747 107.167 329.007 127.547 330.742L119.309 324.403Z" fill="#030303"/>
    <path d="M104.732 439.139C93.7064 443.842 72.0528 452.454 55.9329 457.121C59.3129 460.421 65.059 467.673 61.003 470.286C78.3049 459.316 102.538 444.903 118.675 441.675L104.732 439.139Z" fill="#030303"/>
    <path d="M184.064 510.136C171.607 524.474 145.613 552.515 127.547 567.334C131.434 568.976 139.371 573.654 140.031 579.232C152.573 561.823 170.563 538.429 179.515 532.323C180.149 527.252 182.542 515.208 184.064 510.136Z" fill="#030303"/>
    <path d="M279.016 529.076C270.023 556.24 251.17 609.653 238.255 635.572C243.745 637.474 253.952 645.031 253.4 647.06C254.227 644.028 255.115 640.756 256.054 637.296L256.056 637.289L256.06 637.275L256.061 637.271L256.071 637.233L256.423 635.937C257.273 632.805 258.163 629.53 259.084 626.151C266.455 599.114 275.858 565.457 283.452 545.391V530.737C281.964 530.2 280.486 529.646 279.016 529.076Z" fill="#030303"/>
    <path d="M361.292 543.006C364.759 573.006 369.441 630.194 367.552 657.836C370.215 656.146 376.851 653.145 384.633 657.202C378.525 626.224 370.131 574.729 371.439 542.45C368.049 542.722 364.736 542.903 361.292 543.006C361.119 543.011 360.945 543.016 360.772 543.021L361.292 543.006Z" fill="#030303"/>
    <path d="M512.642 619.802C492.755 593.942 460.518 549.866 454.566 527.886L454.566 546.977C465.712 566.556 487.078 605.827 495.697 627.409C500.21 619.802 508.874 619.168 512.642 619.802Z" fill="#030303"/>
    <path d="M666.875 409.461C649.925 407.845 619.227 404.341 597.162 399.837L575.424 405.684C589.335 406.289 626.41 412.005 661.805 427.911C657.326 421.463 663.319 412.925 666.875 409.461Z" fill="#030303"/>
    <path d="M666.875 274.251C644.903 283.38 601.213 297.95 564.206 298.413L551.874 304.752C552.226 306.849 552.546 308.959 552.834 311.081C579.843 303.535 638.653 289.922 670.044 292.088C664.489 289.563 665.406 279.145 666.875 274.251Z" fill="#030303"/>
    <path fill-rule="evenodd" clip-rule="evenodd" d="M606.034 553.242C595.26 574.583 562.685 619.295 518.576 627.409C516.772 625.133 514.778 622.58 512.642 619.802C492.755 593.942 460.518 549.866 454.566 527.886V516.616C464.204 511.024 473.314 504.637 481.818 497.542C496.521 505.149 541.602 513.812 562.305 517.193L560.404 512.672C562.703 514.54 565.382 516.661 568.26 518.94C578.817 527.297 592.055 537.778 599.063 545.709C599.947 546.709 601.093 547.828 602.202 548.911C604.005 550.67 605.71 552.335 606.034 553.242Z" fill="#112055"/>
    <path d="M599.063 545.709C596.315 542.219 606.368 534.44 610.471 530.353C608.734 529.512 606.933 528.646 605.086 527.758C586.093 518.628 562.387 507.232 556.382 497.221C557.65 501.447 558.883 507.601 560.404 512.672C562.703 514.54 565.382 516.661 568.26 518.94C578.817 527.297 592.055 537.778 599.063 545.709Z" fill="#030303"/>
    <path fill-rule="evenodd" clip-rule="evenodd" d="M626.948 165.927C643.426 180.929 675.621 223.105 672.579 271.789C670.895 272.548 668.985 273.374 666.875 274.251C644.903 283.38 601.213 297.95 564.206 298.413C573.839 295.37 600.119 265.027 610.471 250.236C596.773 246.231 561.342 238.61 528.959 240.082C527.716 237.896 526.432 235.738 525.108 233.607C551.5 213.623 603.473 174.835 623.146 166.822C625.369 165.917 625.589 165.919 626.631 165.925C626.729 165.926 626.834 165.927 626.948 165.927Z" fill="#112055"/>
    <path d="M623.146 166.822C615.034 161.453 610.682 154.416 610.471 151.251C581.945 175.587 530.495 218.085 517.995 222.958C520.478 226.422 522.851 229.974 525.108 233.607C551.5 213.623 603.473 174.835 623.146 166.822Z" fill="#030303"/>
    <path d="M388.022 671.148C439.229 681.29 483.297 652.554 498.929 636.917C498.325 634.424 497.206 631.187 495.697 627.409C487.078 605.827 465.712 566.556 454.566 546.977C452.665 565.547 448.356 602.179 446.328 600.151C443.792 597.615 401.964 565.286 389.289 545.001L387.388 540.535C383.923 541.132 375.312 542.06 371.439 542.45C370.131 574.729 378.525 626.224 384.633 657.202C385.626 662.238 387.195 667.366 388.022 671.148Z" fill="#112055"/>
    <path fill-rule="evenodd" clip-rule="evenodd" d="M384.219 16.9594C334.533 -7.88965 284.93 11.6768 266.34 24.5662C266.842 27.2198 267.42 30.2093 268.06 33.4409C273.073 58.7727 281.859 98.981 287.254 108.875C297.183 118.384 316.534 137.967 317.041 143.038L317.042 143.038C323.626 141.815 339.94 139.484 352.531 139.937C351.01 134.358 369.22 107.185 378.515 94.2956C382.183 91.0855 383.709 50.3108 384.124 24.5662C384.167 21.8415 384.199 19.2851 384.219 16.9594Z" fill="#112055"/>
    <path fill-rule="evenodd" clip-rule="evenodd" d="M352.76 139.937L352.531 139.937C339.94 139.484 323.626 141.815 317.042 143.038L317.041 143.038C292.677 147.364 270.011 156.082 249.773 168.353C241.169 173.57 233.004 179.43 225.335 185.866C224.699 186.4 224.067 186.938 223.438 187.479C204.76 203.561 189.114 223.11 177.341 245.165C175.663 248.309 174.063 251.504 172.544 254.748C169.76 260.695 167.248 266.803 165.025 273.056C157.161 295.168 152.898 319.087 152.898 344.054C152.898 354.658 153.689 365.028 155.218 375.115C159.01 400.147 167.338 423.433 179.36 444.21C184.668 453.385 190.697 462.07 197.373 470.201C197.502 470.358 197.632 470.515 197.761 470.673C212.949 489.051 231.455 504.573 252.437 516.476C260.911 521.283 269.789 525.5 279.016 529.076C280.486 529.646 281.964 530.2 283.452 530.737C305.654 538.753 329.775 543.099 355.066 543.099C356.975 543.099 359.398 543.058 361.292 543.006C364.736 542.903 368.049 542.722 371.439 542.45C375.312 542.06 383.923 541.132 387.388 540.535C411.649 536.63 434.279 528.385 454.566 516.616C464.204 511.024 473.314 504.637 481.818 497.542C499.952 482.412 515.336 464.062 527.229 443.339L527.238 443.324L527.311 443.197C533.065 433.151 537.998 422.824 542.027 412.131C550.232 390.351 554.685 367.053 554.685 341.518C554.685 332.018 554.065 320.17 552.834 311.081C552.546 308.959 552.226 306.849 551.874 304.752C551.693 303.671 551.503 302.593 551.305 301.519C547.224 279.41 539.574 258.749 528.959 240.082C527.716 237.896 526.432 235.738 525.108 233.607C522.851 229.974 520.478 226.422 517.995 222.958C515.162 219.004 512.184 215.163 509.069 211.441C493.804 193.198 475.247 177.812 454.239 166.04L453.932 165.927L453.959 165.884C443.675 160.144 432.806 155.268 421.449 151.347C400.062 143.963 376.948 139.962 352.76 139.937ZM351.898 499.994C439.401 499.994 510.337 429.042 510.337 341.518C510.337 253.994 439.401 183.042 351.898 183.042C264.394 183.042 193.458 253.994 193.458 341.518C193.458 429.042 264.394 499.994 351.898 499.994Z" fill="#E9BAA0"/>
    <path d="M510.337 341.518C510.337 429.042 439.401 499.994 351.898 499.994C264.394 499.994 193.458 429.042 193.458 341.518C193.458 253.994 264.394 183.042 351.898 183.042C439.401 183.042 510.337 253.994 510.337 341.518Z" fill="#E9BAA0"/>
  </mask>
  <g mask="url(#mask1_301_107)">
    <rect x="268.442" y="155.219" width="156.031" height="128" transform="rotate(-93.2207 268.442 155.219)" fill="url(#paint15_linear_301_107)"/>
    <rect x="345" y="143.668" width="156.031" height="128" transform="rotate(-67.9985 345 143.668)" fill="url(#paint16_linear_301_107)"/>
    <rect x="427.995" y="163.552" width="156.031" height="128" transform="rotate(-44.0486 427.995 163.552)" fill="url(#paint17_linear_301_107)"/>
    <rect x="498" y="221.937" width="156.031" height="128" transform="rotate(-25.404 498 221.937)" fill="url(#paint18_linear_301_107)"/>
    <rect x="543.87" y="284" width="156.031" height="128" transform="rotate(5.32096 543.87 284)" fill="url(#paint19_linear_301_107)"/>
    <rect x="559.997" y="363" width="156.031" height="128" transform="rotate(28.9702 559.997 363)" fill="url(#paint20_linear_301_107)"/>
    <rect x="518.455" y="450" width="156.031" height="128" transform="rotate(47.5553 518.455 450)" fill="url(#paint21_linear_301_107)"/>
    <rect x="469.978" y="516" width="156.031" height="128" transform="rotate(77.5243 469.978 516)" fill="url(#paint22_linear_301_107)"/>
    <rect x="243.801" y="14" width="156.031" height="128" transform="rotate(61.7941 243.801 14)" fill="url(#paint23_linear_301_107)"/>
    <rect x="105.378" y="89" width="156.031" height="128" transform="rotate(36.0781 105.378 89)" fill="url(#paint24_linear_301_107)"/>
    <rect x="29.5449" y="209" width="156.031" height="128" transform="rotate(6.97559 29.5449 209)" fill="url(#paint25_linear_301_107)"/>
    <rect x="-7" y="354.881" width="156.031" height="128" transform="rotate(-16.7168 -7 354.881)" fill="url(#paint26_linear_301_107)"/>
    <rect x="31" y="485.577" width="156.031" height="128" transform="rotate(-33.2617 31 485.577)" fill="url(#paint27_linear_301_107)"/>
    <rect x="120" y="611.977" width="156.031" height="128" transform="rotate(-59.8898 120 611.977)" fill="url(#paint28_linear_301_107)"/>
    <rect x="243" y="677.362" width="156.031" height="128" transform="rotate(-81.6102 243 677.362)" fill="url(#paint29_linear_301_107)"/>
  </g>
  <circle cx="250.5" cy="250.5" r="254.5" transform="matrix(1 0 0 -1 100 592)" stroke="url(#paint30_linear_301_107)" stroke-width="8"/>
  <circle cx="250.5" cy="250.5" r="250.5" transform="matrix(1 0 0 -1 100 592)" fill="url(#paint31_linear_301_107)"/>
  <g filter="url(#filter0_f_301_107)">
    <circle cx="342.5" cy="342.5" r="184.5" fill="#FFF8F1" fill-opacity="0.72"/>
  </g>
  <path d="M334.546 291.333H330.457C328.186 274.795 323.038 262.575 315.013 254.673C307.139 246.588 295.707 242.545 280.716 242.545C270.117 242.545 260.274 244.934 251.189 249.712C242.256 254.306 234.533 260.829 228.022 269.282C221.511 277.735 216.438 287.75 212.804 299.327C209.17 310.904 207.353 323.675 207.353 337.641C207.353 353.077 209.322 367.135 213.259 379.814C217.347 392.31 222.874 403.06 229.839 412.064C236.804 421.068 244.981 428.051 254.369 433.013C263.757 437.791 273.826 440.179 284.577 440.179C298.205 440.179 308.577 435.402 315.694 425.846C322.811 416.107 327.505 404.071 329.776 389.737H335L329.095 435.218C326.975 436.872 323.871 438.526 319.782 440.179C315.845 441.833 311.53 443.303 306.836 444.59C301.991 445.876 297.145 446.887 292.3 447.622C287.606 448.541 283.442 449 279.808 449C266.634 449 254.596 446.427 243.694 441.282C232.943 436.137 223.631 428.694 215.757 418.955C207.883 409.4 201.751 397.823 197.36 384.224C193.12 370.626 191 355.374 191 338.468C191 323.216 193.423 309.25 198.268 296.571C203.265 283.707 209.927 272.59 218.256 263.218C226.432 254.03 235.82 246.863 246.42 241.718C257.019 236.573 267.921 234 279.126 234C288.211 234 297.221 235.378 306.155 238.135C315.24 240.891 323.946 244.291 332.274 248.333L334.546 291.333Z" fill="#090807"/>
  <path d="M385 397.554H392.789C394.087 402.913 395.571 408.182 397.24 413.363C398.909 418.543 401.227 423.098 404.194 427.028C407.347 431.137 411.334 434.441 416.156 436.942C420.978 439.265 427.283 440.426 435.072 440.426C449.352 440.426 461.035 436.764 470.122 429.44C479.209 422.116 483.753 412.916 483.753 401.841C483.753 395.41 482.548 389.783 480.137 384.96C477.726 379.959 474.573 375.582 470.679 371.831C466.599 368.079 461.87 364.685 456.492 361.649C451.299 358.612 445.828 355.575 440.079 352.538C434.145 349.68 428.303 346.465 422.554 342.892C416.805 339.32 411.52 335.3 406.698 330.835C402.062 326.19 398.26 321.01 395.293 315.294C392.511 309.399 391.12 302.789 391.12 295.465C391.12 285.998 392.696 277.781 395.849 270.814C399.002 263.847 403.36 258.131 408.923 253.665C414.487 249.021 420.978 245.627 428.396 243.483C435.814 241.161 443.788 240 452.319 240C455.101 240 457.79 240.179 460.386 240.536C462.982 240.715 465.579 240.893 468.175 241.072C470.771 241.429 473.368 241.876 475.964 242.412C478.746 242.769 481.713 243.126 484.866 243.483L489.595 280.46H482.362C480.508 269.742 477.262 261.704 472.626 256.345C467.99 250.986 459.83 248.306 448.146 248.306C433.681 248.306 422.832 252.058 415.6 259.56C408.552 266.884 405.029 275.637 405.029 285.819C405.029 292.25 406.512 298.056 409.48 303.236C412.447 308.238 416.249 312.793 420.885 316.901C425.707 321.01 431.085 324.672 437.019 327.887C442.954 331.103 448.981 334.139 455.101 336.997C461.035 340.034 466.691 343.25 472.07 346.644C477.633 349.859 482.548 353.521 486.813 357.629C491.078 361.917 494.509 366.829 497.106 372.367C499.702 377.726 501 383.888 501 390.855C501 400.501 498.96 408.986 494.88 416.31C490.986 423.456 485.886 429.529 479.58 434.531C473.09 439.354 465.764 443.016 457.604 445.517C449.63 447.839 441.563 449 433.403 449C425.799 449 418.381 448.285 411.149 446.856C404.102 445.427 397.611 443.373 391.676 440.694L385 397.554Z" fill="#090807"/>
  <rect width="64" height="3" transform="matrix(1 0 0 -1 107 351)" fill="#090807"/>
  <rect width="64" height="3" transform="matrix(1 0 0 -1 524 351)" fill="#090807"/>
  <defs>
    <filter id="filter0_f_301_107" x="0" y="0" width="685" height="685" filterUnits="userSpaceOnUse" color-interpolation-filters="sRGB">
      <feFlood flood-opacity="0" result="BackgroundImageFix"/>
      <feBlend mode="normal" in="SourceGraphic" in2="BackgroundImageFix" result="shape"/>
      <feGaussianBlur stdDeviation="79" result="effect1_foregroundBlur_301_107"/>
    </filter>
    <linearGradient id="paint0_linear_301_107" x1="346.458" y1="155.219" x2="346.458" y2="283.219" gradientUnits="userSpaceOnUse">
      <stop offset="0.0572917" stop-color="#551111" stop-opacity="0"/>
      <stop offset="0.40625" stop-color="#DCB1B1" stop-opacity="0.4"/>
      <stop offset="0.489583" stop-color="#E6BEBE" stop-opacity="0.48"/>
      <stop offset="0.578125" stop-color="#DCB1B1" stop-opacity="0.4"/>
      <stop offset="0.942708" stop-color="#551111" stop-opacity="0"/>
    </linearGradient>
    <linearGradient id="paint1_linear_301_107" x1="423.016" y1="143.668" x2="423.016" y2="271.668" gradientUnits="userSpaceOnUse">
      <stop offset="0.0572917" stop-color="#551111" stop-opacity="0"/>
      <stop offset="0.40625" stop-color="#DCB1B1" stop-opacity="0.4"/>
      <stop offset="0.489583" stop-color="#E6BEBE" stop-opacity="0.48"/>
      <stop offset="0.578125" stop-color="#DCB1B1" stop-opacity="0.4"/>
      <stop offset="0.942708" stop-color="#551111" stop-opacity="0"/>
    </linearGradient>
    <linearGradient id="paint2_linear_301_107" x1="506.011" y1="163.552" x2="506.011" y2="291.552" gradientUnits="userSpaceOnUse">
      <stop offset="0.0572917" stop-color="#551111" stop-opacity="0"/>
      <stop offset="0.40625" stop-color="#DCB1B1" stop-opacity="0.4"/>
      <stop offset="0.489583" stop-color="#E6BEBE" stop-opacity="0.48"/>
      <stop offset="0.578125" stop-color="#DCB1B1" stop-opacity="0.4"/>
      <stop offset="0.942708" stop-color="#551111" stop-opacity="0"/>
    </linearGradient>
    <linearGradient id="paint3_linear_301_107" x1="576.016" y1="221.937" x2="576.016" y2="349.937" gradientUnits="userSpaceOnUse">
      <stop offset="0.0572917" stop-color="#551111" stop-opacity="0"/>
      <stop offset="0.40625" stop-color="#DCB1B1" stop-opacity="0.4"/>
      <stop offset="0.489583" stop-color="#E6BEBE" stop-opacity="0.48"/>
      <stop offset="0.578125" stop-color="#DCB1B1" stop-opacity="0.4"/>
      <stop offset="0.942708" stop-color="#551111" stop-opacity="0"/>
    </linearGradient>
    <linearGradient id="paint4_linear_301_107" x1="621.886" y1="284" x2="621.886" y2="412" gradientUnits="userSpaceOnUse">
      <stop offset="0.0572917" stop-color="#551111" stop-opacity="0"/>
      <stop offset="0.40625" stop-color="#DCB1B1" stop-opacity="0.4"/>
      <stop offset="0.489583" stop-color="#E6BEBE" stop-opacity="0.48"/>
      <stop offset="0.578125" stop-color="#DCB1B1" stop-opacity="0.4"/>
      <stop offset="0.942708" stop-color="#551111" stop-opacity="0"/>
    </linearGradient>
    <linearGradient id="paint5_linear_301_107" x1="638.013" y1="363" x2="638.013" y2="491" gradientUnits="userSpaceOnUse">
      <stop offset="0.0572917" stop-color="#551111" stop-opacity="0"/>
      <stop offset="0.40625" stop-color="#DCB1B1" stop-opacity="0.4"/>
      <stop offset="0.489583" stop-color="#E6BEBE" stop-opacity="0.48"/>
      <stop offset="0.578125" stop-color="#DCB1B1" stop-opacity="0.4"/>
      <stop offset="0.942708" stop-color="#551111" stop-opacity="0"/>
    </linearGradient>
    <linearGradient id="paint6_linear_301_107" x1="596.471" y1="450" x2="596.471" y2="578" gradientUnits="userSpaceOnUse">
      <stop offset="0.0572917" stop-color="#551111" stop-opacity="0"/>
      <stop offset="0.40625" stop-color="#DCB1B1" stop-opacity="0.4"/>
      <stop offset="0.489583" stop-color="#E6BEBE" stop-opacity="0.48"/>
      <stop offset="0.578125" stop-color="#DCB1B1" stop-opacity="0.4"/>
      <stop offset="0.942708" stop-color="#551111" stop-opacity="0"/>
    </linearGradient>
    <linearGradient id="paint7_linear_301_107" x1="547.993" y1="516" x2="547.993" y2="644" gradientUnits="userSpaceOnUse">
      <stop offset="0.0572917" stop-color="#551111" stop-opacity="0"/>
      <stop offset="0.40625" stop-color="#DCB1B1" stop-opacity="0.4"/>
      <stop offset="0.489583" stop-color="#E6BEBE" stop-opacity="0.48"/>
      <stop offset="0.578125" stop-color="#DCB1B1" stop-opacity="0.4"/>
      <stop offset="0.942708" stop-color="#551111" stop-opacity="0"/>
    </linearGradient>
    <linearGradient id="paint8_linear_301_107" x1="321.816" y1="14" x2="321.816" y2="142" gradientUnits="userSpaceOnUse">
      <stop offset="0.0572917" stop-color="#551111" stop-opacity="0"/>
      <stop offset="0.40625" stop-color="#DCB1B1" stop-opacity="0.4"/>
      <stop offset="0.489583" stop-color="#E6BEBE" stop-opacity="0.48"/>
      <stop offset="0.578125" stop-color="#DCB1B1" stop-opacity="0.4"/>
      <stop offset="0.942708" stop-color="#551111" stop-opacity="0"/>
    </linearGradient>
    <linearGradient id="paint9_linear_301_107" x1="183.394" y1="89" x2="183.394" y2="217" gradientUnits="userSpaceOnUse">
      <stop offset="0.0572917" stop-color="#551111" stop-opacity="0"/>
      <stop offset="0.40625" stop-color="#DCB1B1" stop-opacity="0.4"/>
      <stop offset="0.489583" stop-color="#E6BEBE" stop-opacity="0.48"/>
      <stop offset="0.578125" stop-color="#DCB1B1" stop-opacity="0.4"/>
      <stop offset="0.942708" stop-color="#551111" stop-opacity="0"/>
    </linearGradient>
    <linearGradient id="paint10_linear_301_107" x1="107.561" y1="209" x2="107.561" y2="337" gradientUnits="userSpaceOnUse">
      <stop offset="0.0572917" stop-color="#551111" stop-opacity="0"/>
      <stop offset="0.40625" stop-color="#DCB1B1" stop-opacity="0.4"/>
      <stop offset="0.489583" stop-color="#E6BEBE" stop-opacity="0.48"/>
      <stop offset="0.578125" stop-color="#DCB1B1" stop-opacity="0.4"/>
      <stop offset="0.942708" stop-color="#551111" stop-opacity="0"/>
    </linearGradient>
    <linearGradient id="paint11_linear_301_107" x1="71.0156" y1="354.881" x2="71.0156" y2="482.881" gradientUnits="userSpaceOnUse">
      <stop offset="0.0572917" stop-color="#551111" stop-opacity="0"/>
      <stop offset="0.40625" stop-color="#DCB1B1" stop-opacity="0.4"/>
      <stop offset="0.489583" stop-color="#E6BEBE" stop-opacity="0.48"/>
      <stop offset="0.578125" stop-color="#DCB1B1" stop-opacity="0.4"/>
      <stop offset="0.942708" stop-color="#551111" stop-opacity="0"/>
    </linearGradient>
    <linearGradient id="paint12_linear_301_107" x1="109.016" y1="485.577" x2="109.016" y2="613.577" gradientUnits="userSpaceOnUse">
      <stop offset="0.0572917" stop-color="#551111" stop-opacity="0"/>
      <stop offset="0.40625" stop-color="#DCB1B1" stop-opacity="0.4"/>
      <stop offset="0.489583" stop-color="#E6BEBE" stop-opacity="0.48"/>
      <stop offset="0.578125" stop-color="#DCB1B1" stop-opacity="0.4"/>
      <stop offset="0.942708" stop-color="#551111" stop-opacity="0"/>
    </linearGradient>
    <linearGradient id="paint13_linear_301_107" x1="198.016" y1="611.977" x2="198.016" y2="739.977" gradientUnits="userSpaceOnUse">
      <stop offset="0.0572917" stop-color="#551111" stop-opacity="0"/>
      <stop offset="0.40625" stop-color="#DCB1B1" stop-opacity="0.4"/>
      <stop offset="0.489583" stop-color="#E6BEBE" stop-opacity="0.48"/>
      <stop offset="0.578125" stop-color="#DCB1B1" stop-opacity="0.4"/>
      <stop offset="0.942708" stop-color="#551111" stop-opacity="0"/>
    </linearGradient>
    <linearGradient id="paint14_linear_301_107" x1="321.016" y1="677.362" x2="321.016" y2="805.362" gradientUnits="userSpaceOnUse">
      <stop offset="0.0572917" stop-color="#551111" stop-opacity="0"/>
      <stop offset="0.40625" stop-color="#DCB1B1" stop-opacity="0.4"/>
      <stop offset="0.489583" stop-color="#E6BEBE" stop-opacity="0.48"/>
      <stop offset="0.578125" stop-color="#DCB1B1" stop-opacity="0.4"/>
      <stop offset="0.942708" stop-color="#551111" stop-opacity="0"/>
    </linearGradient>
    <linearGradient id="paint15_linear_301_107" x1="346.458" y1="155.219" x2="346.458" y2="283.219" gradientUnits="userSpaceOnUse">
      <stop offset="0.0364583" stop-color="#340404" stop-opacity="0.17"/>
      <stop offset="0.942708" stop-color="#6B0909" stop-opacity="0.05"/>
    </linearGradient>
    <linearGradient id="paint16_linear_301_107" x1="423.016" y1="143.668" x2="423.016" y2="271.668" gradientUnits="userSpaceOnUse">
      <stop offset="0.0364583" stop-color="#340404" stop-opacity="0.17"/>
      <stop offset="0.942708" stop-color="#6B0909" stop-opacity="0.05"/>
    </linearGradient>
    <linearGradient id="paint17_linear_301_107" x1="506.011" y1="163.552" x2="506.011" y2="291.552" gradientUnits="userSpaceOnUse">
      <stop offset="0.0364583" stop-color="#340404" stop-opacity="0.17"/>
      <stop offset="0.942708" stop-color="#6B0909" stop-opacity="0.05"/>
    </linearGradient>
    <linearGradient id="paint18_linear_301_107" x1="576.016" y1="221.937" x2="576.016" y2="349.937" gradientUnits="userSpaceOnUse">
      <stop offset="0.0364583" stop-color="#340404" stop-opacity="0.17"/>
      <stop offset="0.942708" stop-color="#6B0909" stop-opacity="0.05"/>
    </linearGradient>
    <linearGradient id="paint19_linear_301_107" x1="621.886" y1="284" x2="621.886" y2="412" gradientUnits="userSpaceOnUse">
      <stop offset="0.0364583" stop-color="#340404" stop-opacity="0.17"/>
      <stop offset="0.942708" stop-color="#6B0909" stop-opacity="0.05"/>
    </linearGradient>
    <linearGradient id="paint20_linear_301_107" x1="638.013" y1="363" x2="638.013" y2="491" gradientUnits="userSpaceOnUse">
      <stop offset="0.0364583" stop-color="#340404" stop-opacity="0.17"/>
      <stop offset="0.942708" stop-color="#6B0909" stop-opacity="0.05"/>
    </linearGradient>
    <linearGradient id="paint21_linear_301_107" x1="596.471" y1="450" x2="596.471" y2="578" gradientUnits="userSpaceOnUse">
      <stop offset="0.0364583" stop-color="#340404" stop-opacity="0.17"/>
      <stop offset="0.942708" stop-color="#6B0909" stop-opacity="0.05"/>
    </linearGradient>
    <linearGradient id="paint22_linear_301_107" x1="547.993" y1="516" x2="547.993" y2="644" gradientUnits="userSpaceOnUse">
      <stop offset="0.0364583" stop-color="#340404" stop-opacity="0.17"/>
      <stop offset="0.942708" stop-color="#6B0909" stop-opacity="0.05"/>
    </linearGradient>
    <linearGradient id="paint23_linear_301_107" x1="321.816" y1="14" x2="321.816" y2="142" gradientUnits="userSpaceOnUse">
      <stop offset="0.0364583" stop-color="#340404" stop-opacity="0.17"/>
      <stop offset="0.942708" stop-color="#6B0909" stop-opacity="0.05"/>
    </linearGradient>
    <linearGradient id="paint24_linear_301_107" x1="183.394" y1="89" x2="183.394" y2="217" gradientUnits="userSpaceOnUse">
      <stop offset="0.0364583" stop-color="#340404" stop-opacity="0.17"/>
      <stop offset="0.942708" stop-color="#6B0909" stop-opacity="0.05"/>
    </linearGradient>
    <linearGradient id="paint25_linear_301_107" x1="107.561" y1="209" x2="107.561" y2="337" gradientUnits="userSpaceOnUse">
      <stop offset="0.0364583" stop-color="#340404" stop-opacity="0.17"/>
      <stop offset="0.942708" stop-color="#6B0909" stop-opacity="0.05"/>
    </linearGradient>
    <linearGradient id="paint26_linear_301_107" x1="71.0156" y1="354.881" x2="71.0156" y2="482.881" gradientUnits="userSpaceOnUse">
      <stop offset="0.0364583" stop-color="#340404" stop-opacity="0.17"/>
      <stop offset="0.942708" stop-color="#6B0909" stop-opacity="0.05"/>
    </linearGradient>
    <linearGradient id="paint27_linear_301_107" x1="109.016" y1="485.577" x2="109.016" y2="613.577" gradientUnits="userSpaceOnUse">
      <stop offset="0.0364583" stop-color="#340404" stop-opacity="0.17"/>
      <stop offset="0.942708" stop-color="#6B0909" stop-opacity="0.05"/>
    </linearGradient>
    <linearGradient id="paint28_linear_301_107" x1="198.016" y1="611.977" x2="198.016" y2="739.977" gradientUnits="userSpaceOnUse">
      <stop offset="0.0364583" stop-color="#340404" stop-opacity="0.17"/>
      <stop offset="0.942708" stop-color="#6B0909" stop-opacity="0.05"/>
    </linearGradient>
    <linearGradient id="paint29_linear_301_107" x1="321.016" y1="677.362" x2="321.016" y2="805.362" gradientUnits="userSpaceOnUse">
      <stop offset="0.0364583" stop-color="#340404" stop-opacity="0.17"/>
      <stop offset="0.942708" stop-color="#6B0909" stop-opacity="0.05"/>
    </linearGradient>
    <linearGradient id="paint30_linear_301_107" x1="300" y1="24.5" x2="178" y2="477" gradientUnits="userSpaceOnUse">
      <stop stop-color="#371803"/>
      <stop offset="1" stop-color="white"/>
    </linearGradient>
    <linearGradient id="paint31_linear_301_107" x1="408" y1="73.5" x2="80" y2="424.5" gradientUnits="userSpaceOnUse">
      <stop stop-color="#5A2101"/>
      <stop offset="0.1875" stop-color="#803802"/>
      <stop offset="0.588542" stop-color="#E37505"/>
      <stop offset="0.802083" stop-color="#FEA807"/>
      <stop offset="1" stop-color="#FDF099"/>
    </linearGradient>
  </defs>
</svg>
