<?xml version="1.0" standalone="no"?>
<!DOCTYPE svg PUBLIC "-//W3C//DTD SVG 20010904//EN"
 "http://www.w3.org/TR/2001/REC-SVG-20010904/DTD/svg10.dtd">
<svg version="1.0" xmlns="http://www.w3.org/2000/svg"
 width="688.000000pt" height="688.000000pt" viewBox="0 0 688.000000 688.000000"
 preserveAspectRatio="xMidYMid meet">
<metadata>
Created by potrace 1.14, written by Peter Selinger 2001-2017
</metadata>
<g transform="translate(0.000000,688.000000) scale(0.100000,-0.100000)"
fill="#000000" stroke="none">
<path d="M3267 6814 c-1 -1 -31 -4 -67 -7 -36 -3 -72 -7 -80 -10 -8 -4 -28 -8
-45 -11 -48 -8 -173 -44 -190 -54 -5 -4 -15 -7 -21 -8 -17 -3 -126 -56 -166
-82 -36 -23 -37 -25 -32 -75 6 -59 -6 -73 -73 -83 -21 -3 -42 -6 -48 -8 -18
-6 -55 13 -55 29 0 8 -5 15 -11 15 -5 0 -8 4 -4 9 9 16 -22 37 -51 35 -115
-10 -189 -23 -279 -50 -33 -10 -63 -17 -67 -16 -5 1 -8 -2 -8 -6 0 -5 -6 -9
-12 -9 -14 0 -200 -91 -208 -101 -3 -4 -14 -12 -25 -18 -54 -30 -71 -41 -100
-66 -16 -16 -33 -28 -37 -28 -21 0 -248 -226 -248 -247 0 -16 29 -76 41 -83
13 -9 22 -60 10 -60 -6 0 -11 -6 -11 -13 0 -14 -48 -60 -65 -63 -5 -1 -18 -5
-27 -9 -13 -5 -28 3 -54 29 -20 20 -43 36 -51 36 -13 0 -76 -31 -163 -81 -14
-8 -29 -20 -33 -26 -4 -7 -12 -13 -17 -13 -32 0 -212 -190 -278 -295 -17 -27
-36 -55 -42 -62 -5 -7 -10 -16 -10 -21 0 -5 -7 -15 -15 -22 -9 -7 -14 -15 -11
-17 2 -3 -9 -30 -24 -62 -16 -31 -32 -69 -35 -84 -4 -15 -11 -27 -16 -27 -5 0
-8 -3 -8 -7 1 -5 0 -10 -1 -13 -1 -3 -3 -12 -5 -20 -2 -8 -6 -24 -9 -35 -18
-69 -24 -100 -20 -106 2 -4 -1 -9 -8 -11 -13 -5 19 -40 61 -68 19 -13 22 -21
16 -54 -3 -21 -15 -52 -27 -68 -18 -26 -25 -29 -52 -24 -97 20 -99 20 -126
-24 -14 -22 -28 -40 -33 -40 -4 0 -6 -4 -3 -8 3 -5 -4 -19 -15 -30 -11 -12
-17 -22 -13 -22 4 0 1 -8 -7 -17 -20 -24 -86 -161 -94 -195 -4 -16 -11 -28
-16 -28 -5 0 -8 -3 -7 -7 1 -5 -5 -30 -14 -58 -21 -63 -35 -120 -43 -165 -3
-19 -10 -49 -14 -66 -15 -54 -7 -312 12 -393 10 -41 19 -76 20 -78 2 -1 23 -5
47 -8 56 -7 70 -19 68 -61 -1 -19 1 -37 5 -40 3 -3 1 -18 -4 -34 -8 -22 -18
-29 -52 -34 -69 -11 -103 -25 -103 -44 -1 -9 -9 -44 -18 -77 -10 -33 -19 -69
-21 -80 -29 -182 -27 -297 10 -480 29 -147 144 -372 240 -471 l30 -32 64 16
c58 14 64 14 72 -1 5 -9 15 -22 23 -29 7 -7 16 -25 19 -40 6 -23 2 -30 -38
-57 -26 -17 -49 -31 -53 -31 -4 0 -13 -9 -19 -19 -10 -15 -9 -33 2 -83 17 -79
40 -155 65 -213 11 -25 20 -49 21 -53 1 -4 10 -19 21 -34 11 -16 16 -28 13
-28 -4 0 1 -7 9 -16 9 -8 16 -22 16 -30 0 -8 5 -14 10 -14 6 0 10 -5 10 -10 0
-6 10 -25 23 -43 109 -155 263 -317 391 -411 l78 -58 59 40 c54 37 89 45 89
21 0 -5 3 -8 8 -7 4 2 22 -10 40 -26 32 -29 42 -68 22 -81 -16 -10 -62 -85
-58 -95 8 -23 167 -192 220 -235 7 -5 36 -28 63 -51 52 -43 136 -101 170 -120
61 -32 122 -67 133 -76 6 -6 12 -8 12 -4 0 4 17 -2 38 -12 70 -36 219 -80 291
-87 14 -2 31 -4 36 -5 26 -6 38 4 63 58 41 86 39 84 70 65 15 -9 46 -32 69
-50 44 -35 44 -37 24 -109 -15 -52 -16 -50 24 -68 19 -9 35 -21 35 -26 0 -6 6
-10 13 -10 6 0 41 -15 77 -33 79 -40 154 -64 295 -93 137 -28 450 -19 579 18
39 10 65 16 93 20 25 3 42 34 47 87 2 30 8 57 13 62 4 4 26 12 49 17 49 11
116 -11 113 -37 -1 -9 1 -23 4 -31 3 -8 10 -31 15 -50 7 -30 14 -36 48 -43 46
-11 270 -14 334 -5 71 10 176 36 259 64 67 23 267 118 281 133 3 4 30 22 60
43 78 51 140 108 140 128 0 10 -7 34 -15 54 -9 21 -11 36 -5 36 5 0 10 6 10
13 0 20 55 47 105 52 25 3 45 2 45 -2 0 -5 13 -23 28 -41 30 -34 49 -37 107
-12 11 5 38 14 60 21 89 26 263 133 360 220 61 55 165 166 205 218 67 88 96
130 135 196 l44 74 -27 28 c-54 56 -55 59 -35 90 10 15 36 44 57 64 35 32 43
35 68 27 15 -6 30 -14 33 -18 6 -10 45 -1 45 11 0 5 4 8 8 6 5 -1 22 9 38 23
52 45 204 203 204 212 0 5 6 16 13 23 6 8 17 20 22 27 10 12 90 172 107 213
10 26 37 104 38 110 0 3 0 6 1 8 1 5 7 33 13 62 3 17 9 41 12 55 9 35 14 300
6 298 -4 -1 -19 4 -33 10 -37 15 -41 57 -12 117 28 60 27 58 66 60 28 1 35 7
59 55 25 50 74 187 83 233 2 10 7 27 10 37 3 10 8 34 10 52 2 18 7 62 11 98
13 105 7 318 -11 380 -2 8 -6 31 -9 50 -6 37 -32 129 -63 218 -17 49 -21 53
-60 63 -36 10 -44 16 -52 44 -9 33 -6 109 5 127 3 5 17 13 30 18 17 7 24 18
25 37 0 16 1 47 2 71 1 23 0 42 -3 42 -3 0 -5 17 -6 38 -1 20 -4 51 -7 67 -3
17 -8 44 -11 60 -25 138 -112 342 -207 483 -16 24 -29 47 -29 52 0 4 -3 10 -8
12 -4 2 -23 23 -42 48 -42 55 -43 56 -103 119 -28 29 -53 48 -62 45 -29 -11
-100 48 -132 109 -14 28 -14 31 12 54 17 17 24 31 20 42 -4 9 -11 31 -17 49
-5 17 -13 32 -18 32 -6 0 -10 6 -10 14 0 18 -68 140 -81 144 -5 2 -9 8 -9 14
0 26 -184 224 -265 283 -22 17 -42 33 -45 36 -25 30 -211 136 -334 189 l-50
22 -24 -30 c-24 -30 -25 -30 -58 -14 -19 8 -34 19 -34 24 0 4 -5 8 -11 8 -6 0
-26 12 -44 26 -29 22 -32 28 -23 44 8 12 9 25 2 38 -9 21 -101 122 -110 122
-3 0 -15 9 -27 21 -83 78 -340 202 -444 214 -11 2 -30 6 -41 9 -102 33 -444
39 -473 9 -4 -4 -9 -19 -11 -33 -2 -18 -11 -26 -35 -31 -18 -3 -35 -4 -38 -1
-8 8 -36 14 -64 13 -35 -1 -49 15 -45 52 4 29 0 34 -29 46 -124 52 -242 86
-335 97 -56 6 -210 12 -215 8z"/>
</g>
</svg>
